<svg xmlns="http://www.w3.org/2000/svg" width="244" height="61" viewBox="0 0 244 61">
  <g fill="none" fill-rule="evenodd">
    <rect width="243.523" height="61" fill-rule="nonzero"/>
    <path fill="#FFF" d="M5.77362676,16.4324188 C4.48137889,16.4324188 3.42940716,16.036063 2.61768003,15.2433395 C1.8059529,14.4506161 1.40009542,13.3945722 1.40009542,12.0751762 L1.40009542,11.8471336 C1.40009542,10.9621067 1.57112566,10.1707525 1.91319128,9.47304726 C2.25525689,8.775342 2.73984258,8.23781838 3.36696287,7.86046028 C3.99408316,7.48310218 4.70942393,7.29442596 5.51300665,7.29442596 C6.71838072,7.29442596 7.66719134,7.67449317 8.35946699,8.43463898 C9.05174264,9.19478479 9.39787527,10.2725468 9.39787527,11.6679573 L9.39787527,12.628994 L3.78639837,12.628994 C3.86241295,13.204533 4.09181066,13.6660431 4.47459837,14.0135384 C4.85738608,14.3610336 5.34197176,14.5347786 5.92836996,14.5347786 C6.83511532,14.5347786 7.54366917,14.2062919 8.05405279,13.5493088 L9.21055456,14.844265 C8.85762972,15.3437894 8.37983095,15.7333583 7.77714392,16.0129833 C7.17445688,16.2926084 6.50662451,16.4324188 5.77362676,16.4324188 Z M5.50486227,9.20021057 C5.03791556,9.20021057 4.65920574,9.35766698 4.36872145,9.67258453 C4.07823715,9.98750208 3.8922757,10.4381532 3.81083151,11.0245514 L7.08487173,11.0245514 L7.08487173,10.8372307 C7.0740125,10.3159878 6.93284468,9.91284513 6.66136404,9.62779045 C6.38988339,9.34273577 6.00438666,9.20021057 5.50486227,9.20021057 Z M13.3765206,7.45731354 L13.44982,8.47536087 C14.0796551,7.688067 14.9239472,7.29442596 15.9827218,7.29442596 C16.9166152,7.29442596 17.6115952,7.5686173 18.0676827,8.11700821 C18.5237702,8.66539911 18.75724,9.48525837 18.7680993,10.5766106 L18.7680993,16.2695312 L16.4143738,16.2695312 L16.4143738,10.6336212 C16.4143738,10.1340968 16.3057832,9.7716756 16.0885987,9.54634666 C15.8714142,9.32101773 15.5103503,9.20835495 15.0053963,9.20835495 C14.3429835,9.20835495 13.8461814,9.49069059 13.514975,10.0553703 L13.514975,16.2695312 L11.1612496,16.2695312 L11.1612496,7.45731354 L13.3765206,7.45731354 Z M32.9476952,11.1304283 L28.2565331,11.1304283 L28.2565331,14.306736 L33.7621331,14.306736 L33.7621331,16.2695312 L25.8132195,16.2695312 L25.8132195,4.41131592 L33.7458443,4.41131592 L33.7458443,6.39039993 L28.2565331,6.39039993 L28.2565331,9.21649933 L32.9476952,9.21649933 L32.9476952,11.1304283 Z M40.2899689,13.834362 C40.2899689,13.5465925 40.1474437,13.3199096 39.862389,13.1543064 C39.5773344,12.9887032 39.1198963,12.8407485 38.4900612,12.7104378 C36.3942307,12.2706391 35.3463311,11.380196 35.3463311,10.0390816 C35.3463311,9.25721731 35.6707456,8.60431615 36.3195843,8.08035851 C36.9684231,7.55640086 37.8167874,7.29442596 38.8647027,7.29442596 C39.9832029,7.29442596 40.8777182,7.55775824 41.5482754,8.08443069 C42.2188326,8.61110315 42.5541062,9.29522411 42.5541062,10.1368141 L40.2003808,10.1368141 C40.2003808,9.80017812 40.0917901,9.52191463 39.8746056,9.3020153 C39.6574211,9.08211598 39.3180754,8.97216797 38.8565583,8.97216797 C38.4601965,8.97216797 38.153428,9.06175524 37.9362435,9.24093246 C37.719059,9.42010969 37.6104683,9.64815001 37.6104683,9.92506027 C37.6104683,10.1856817 37.7339902,10.396076 37.9810376,10.5562496 C38.228085,10.7164232 38.6448015,10.8548763 39.2311997,10.9716129 C39.8175979,11.0883496 40.3116853,11.2200157 40.7134766,11.3666153 C41.956858,11.8227028 42.5785393,12.6126996 42.5785393,13.7366295 C42.5785393,14.5402122 42.2337641,15.1903986 41.5442032,15.6872082 C40.8546424,16.1840178 39.9641992,16.4324188 38.872847,16.4324188 C38.1344197,16.4324188 37.4788038,16.3007527 36.9059796,16.0374165 C36.3331554,15.7740802 35.8838617,15.4130164 35.5580849,14.9542141 C35.2323081,14.4954118 35.0694222,13.9999671 35.0694222,13.467865 L37.300982,13.467865 C37.3227004,13.8859452 37.4774421,14.2062875 37.7652115,14.4289017 C38.052981,14.6515158 38.4384778,14.7628212 38.9217133,14.7628212 C39.3723712,14.7628212 39.7130743,14.6773061 39.9438328,14.5062733 C40.1745914,14.3352405 40.2899689,14.1112723 40.2899689,13.834362 Z M52.5025811,11.9448662 C52.5025811,13.3022694 52.1944552,14.3895331 51.5781941,15.2066898 C50.961933,16.0238466 50.1298573,16.4324188 49.081942,16.4324188 C48.1914855,16.4324188 47.4720726,16.1229355 46.9236817,15.5039597 L46.9236817,19.6575928 L44.5699563,19.6575928 L44.5699563,7.45731354 L46.7526497,7.45731354 L46.8340935,8.32061768 C47.4042029,7.63648645 48.1480487,7.29442596 49.0656533,7.29442596 C50.1515759,7.29442596 50.995868,7.69621129 51.598555,8.49979401 C52.2012421,9.30337672 52.5025811,10.4110011 52.5025811,11.8227005 L52.5025811,11.9448662 Z M50.1488556,11.7738342 C50.1488556,10.9539627 50.0036157,10.3214223 49.7131314,9.876194 C49.4226471,9.43096574 49.000501,9.20835495 48.4466805,9.20835495 C47.7082531,9.20835495 47.200592,9.49069059 46.9236817,10.0553703 L46.9236817,13.6633301 C47.2114512,14.2442987 47.7245419,14.5347786 48.4629693,14.5347786 C49.5868991,14.5347786 50.1488556,13.614473 50.1488556,11.7738342 Z M59.5435128,16.2695312 C59.4349205,16.0577763 59.3561923,15.7944441 59.3073258,15.4795265 C58.7372164,16.1147912 57.9960854,16.4324188 57.0839104,16.4324188 C56.220602,16.4324188 55.5052612,16.1826604 54.9378666,15.683136 C54.3704721,15.1836116 54.0867791,14.5537859 54.0867791,13.7936401 C54.0867791,12.8597467 54.4329117,12.1430486 55.1251874,11.6435242 C55.817463,11.1439998 56.8178542,10.8915266 58.1263909,10.886097 L59.2095933,10.886097 L59.2095933,10.3811455 C59.2095933,9.97392451 59.1050748,9.64815262 58.8960347,9.40382004 C58.6869946,9.15948746 58.3571505,9.037323 57.9064927,9.037323 C57.5101309,9.037323 57.1992902,9.1323398 56.9739613,9.32237625 C56.7486324,9.5124127 56.6359696,9.77303021 56.6359696,10.1042366 L54.2822442,10.1042366 C54.2822442,9.59385299 54.4397006,9.12148375 54.7546181,8.68711472 C55.0695357,8.25274568 55.5147573,7.91204258 56.0902962,7.66499519 C56.6658352,7.41794781 57.3119494,7.29442596 58.0286583,7.29442596 C59.1145809,7.29442596 59.9765191,7.56725992 60.6144986,8.11293602 C61.2524781,8.65861212 61.5714631,9.42553344 61.5714631,10.413723 L61.5714631,14.2334366 C61.5768927,15.069597 61.6936276,15.7021374 61.9216714,16.1310768 L61.9216714,16.2695312 L59.5435128,16.2695312 Z M57.5970063,14.6325111 C57.9445015,14.6325111 58.2648439,14.5551403 58.558043,14.4003963 C58.8512421,14.2456524 59.0684233,14.0379728 59.2095933,13.7773514 L59.2095933,12.2624969 L58.3300004,12.2624969 C57.1517744,12.2624969 56.5246635,12.6697118 56.4486489,13.4841537 L56.4405045,13.6226082 C56.4405045,13.9158073 56.5436656,14.1574214 56.7499909,14.3474579 C56.9563162,14.5374943 57.2386518,14.6325111 57.5970063,14.6325111 Z M66.0224824,7.45731354 L66.0957818,8.47536087 C66.7256169,7.688067 67.569909,7.29442596 68.6286835,7.29442596 C69.5625769,7.29442596 70.257557,7.5686173 70.7136445,8.11700821 C71.1697319,8.66539911 71.4032018,9.48525837 71.414061,10.5766106 L71.414061,16.2695312 L69.0603356,16.2695312 L69.0603356,10.6336212 C69.0603356,10.1340968 68.951745,9.7716756 68.7345604,9.54634666 C68.5173759,9.32101773 68.1563121,9.20835495 67.6513581,9.20835495 C66.9889453,9.20835495 66.4921432,9.49069059 66.1609368,10.0553703 L66.1609368,16.2695312 L63.8072114,16.2695312 L63.8072114,7.45731354 L66.0224824,7.45731354 Z M70.6973557,3.86564255 C70.6973557,4.47918881 70.5181812,4.99363692 70.1598267,5.4090023 C69.8014723,5.82436769 69.364395,6.03204727 68.8485818,6.03204727 C68.6422565,6.03204727 68.4590098,6.00897176 68.2988362,5.96282005 C68.1386626,5.91666834 67.9174092,5.81757939 67.6350693,5.66555023 C67.3527295,5.51352107 67.149122,5.41986165 67.0242409,5.38456917 C66.8993598,5.34927668 66.7636215,5.33163071 66.617022,5.33163071 C66.4269855,5.33163071 66.265457,5.39949985 66.1324315,5.53524017 C65.999406,5.6709805 65.9328942,5.86372886 65.9328942,6.11349106 L64.5646386,6.03204727 C64.5646386,5.42936024 64.7424557,4.91626951 65.0980954,4.4927597 C65.453735,4.0692499 65.8894549,3.85749817 66.4052682,3.85749817 C66.5681565,3.85749817 66.7215408,3.87785891 66.8654255,3.91858101 C67.0093103,3.95930311 67.2441375,4.05839206 67.5699143,4.21585083 C67.8956911,4.3733096 68.1210166,4.46832641 68.2458977,4.50090408 C68.3707788,4.53348176 68.5010876,4.54977036 68.6368279,4.54977036 C68.8268644,4.54977036 68.9911077,4.48325859 69.1295628,4.35023308 C69.2680179,4.21720756 69.3372445,4.02581658 69.3372445,3.77605438 L70.6973557,3.86564255 Z M73.3077454,11.7819786 C73.3077454,10.9078109 73.4760609,10.1286732 73.8126969,9.44454193 C74.1493329,8.7604107 74.6339186,8.23103138 75.2664685,7.85638809 C75.8990184,7.4817448 76.6333625,7.29442596 77.4695229,7.29442596 C78.6586081,7.29442596 79.6291369,7.65820457 80.3811383,8.38577271 C81.1331397,9.11334084 81.552571,10.1015156 81.6394448,11.3503265 L81.6557335,11.9530106 C81.6557335,13.3049842 81.2783811,14.3895331 80.5236649,15.2066898 C79.7689487,16.0238466 78.7563411,16.4324188 77.4858117,16.4324188 C76.2152822,16.4324188 75.2013172,16.025204 74.4438862,15.210762 C73.6864552,14.3963201 73.3077454,13.2886957 73.3077454,11.8878555 L73.3077454,11.7819786 Z M75.6614708,11.9530106 C75.6614708,12.7891709 75.8189273,13.4284983 76.1338448,13.8710117 C76.4487624,14.3135252 76.8994135,14.5347786 77.4858117,14.5347786 C78.055921,14.5347786 78.5011426,14.31624 78.8214898,13.8791561 C79.1418369,13.4420723 79.3020081,12.7430201 79.3020081,11.7819786 C79.3020081,10.9621071 79.1418369,10.3268519 78.8214898,9.876194 C78.5011426,9.42553613 78.0504915,9.20021057 77.4695229,9.20021057 C76.8939839,9.20021057 76.4487624,9.42417874 76.1338448,9.87212181 C75.8189273,10.3200649 75.6614708,11.0136875 75.6614708,11.9530106 Z M86.0660309,16.2695312 L83.7041611,16.2695312 L83.7041611,3.75976562 L86.0660309,3.75976562 L86.0660309,16.2695312 Z" transform="translate(77.354 29.547)"/>
    <path fill="#FABF2C" d="M10.9602394,12.0703545 C10.8626615,13.4192254 10.3647347,14.4810867 9.46644402,15.25597 C8.56815334,16.0308533 7.38432157,16.4182892 5.91491318,16.4182892 C4.30774775,16.4182892 3.04355891,15.8773139 2.12230873,14.7953472 C1.20105855,13.7133805 0.740440369,12.2282097 0.740440369,10.3397903 L0.740440369,9.57352066 C0.740440369,8.36814659 0.952812614,7.30628536 1.37756348,6.38790512 C1.80231434,5.46952488 2.40929718,4.7649656 3.1985302,4.27420616 C3.98776322,3.78344672 4.90469474,3.53807068 5.94935226,3.53807068 C7.39580115,3.53807068 8.5609786,3.92550653 9.44491959,4.70038986 C10.3288606,5.47527319 10.8397019,6.56296348 10.977459,7.96349335 L8.39452744,7.96349335 C8.33138879,7.15417076 8.10610202,6.56727719 7.71866035,6.20279503 C7.33121869,5.83831287 6.74145522,5.65607452 5.94935226,5.65607452 C5.08837079,5.65607452 4.44407931,5.96458826 4.01645851,6.58162498 C3.58883771,7.19866171 3.36929073,8.15577176 3.35781097,9.45298386 L3.35781097,10.4000587 C3.35781097,11.7546696 3.56300848,12.7447835 3.97340965,13.37043 C4.38381082,13.9960765 5.03097219,14.3088951 5.91491318,14.3088951 C6.71275601,14.3088951 7.30825927,14.1266568 7.70144081,13.7621746 C8.09462235,13.3976924 8.31990913,12.833758 8.37730789,12.0703545 L10.9602394,12.0703545 Z M24.9456826,10.2623024 C24.9456826,11.4963759 24.7275706,12.5783263 24.2913399,13.5081863 C23.8551093,14.4380463 23.2309071,15.1555201 22.4187146,15.6606293 C21.6065221,16.1657384 20.6752411,16.4182892 19.6248437,16.4182892 C18.585926,16.4182892 17.6589499,16.1686083 16.8438874,15.669239 C16.0288249,15.1698698 15.397448,14.4567008 14.9497376,13.5297108 C14.5020273,12.6027207 14.2753055,11.5365546 14.2695657,10.3311806 L14.2695657,9.71127701 C14.2695657,8.47720356 14.4919825,7.39094822 14.936823,6.45247841 C15.3816634,5.5140086 16.0101704,4.7936649 16.822363,4.2914257 C17.6345555,3.78918651 18.5629666,3.53807068 19.6076241,3.53807068 C20.6522817,3.53807068 21.5806928,3.78918651 22.3928853,4.2914257 C23.2050778,4.7936649 23.8335849,5.5140086 24.2784253,6.45247841 C24.7232657,7.39094822 24.9456826,8.47433366 24.9456826,9.70266724 L24.9456826,10.2623024 Z M22.328312,9.69405746 C22.328312,8.37962574 22.0929806,7.38090221 21.6223107,6.6978569 C21.1516408,6.0148116 20.4800854,5.67329407 19.6076241,5.67329407 C18.7409028,5.67329407 18.0722172,6.01050675 17.6015473,6.68494225 C17.1308774,7.35937774 16.8926761,8.34805664 16.8869363,9.65100861 L16.8869363,10.2623024 C16.8869363,11.5422949 17.1222677,12.5352786 17.5929375,13.2412834 C18.0636074,13.9472882 18.7409027,14.3002853 19.6248437,14.3002853 C20.491565,14.3002853 21.1573807,13.9602028 21.6223107,13.2800274 C22.0872407,12.599852 22.3225721,11.6083032 22.328312,10.3053513 L22.328312,9.69405746 Z M31.5611612,16.2460938 L28.9782297,16.2460938 L28.9782297,3.71026611 L31.5611612,3.71026611 L31.5611612,16.2460938 Z M46.1406786,16.2460938 L43.5577471,16.2460938 L38.5296404,7.99793243 L38.5296404,16.2460938 L35.9467089,16.2460938 L35.9467089,3.71026611 L38.5296404,3.71026611 L43.5663569,11.975647 L43.5663569,3.71026611 L46.1406786,3.71026611 L46.1406786,16.2460938 Z M59.5750964,5.80244064 L55.7351382,5.80244064 L55.7351382,16.2460938 L53.1522067,16.2460938 L53.1522067,5.80244064 L49.3639071,5.80244064 L49.3639071,3.71026611 L59.5750964,3.71026611 L59.5750964,5.80244064 Z M70.5815586,10.8133278 L65.6223301,10.8133278 L65.6223301,14.1711388 L71.4425358,14.1711388 L71.4425358,16.2460938 L63.0393985,16.2460938 L63.0393985,3.71026611 L71.4253162,3.71026611 L71.4253162,5.80244064 L65.6223301,5.80244064 L65.6223301,8.79003143 L70.5815586,8.79003143 L70.5815586,10.8133278 Z M77.5328183,14.1711388 L83.0172429,14.1711388 L83.0172429,16.2460938 L74.9498867,16.2460938 L74.9498867,3.71026611 L77.5328183,3.71026611 L77.5328183,14.1711388 Z M94.0323148,10.8133278 L89.0730863,10.8133278 L89.0730863,14.1711388 L94.893292,14.1711388 L94.893292,16.2460938 L86.4901548,16.2460938 L86.4901548,3.71026611 L94.8760724,3.71026611 L94.8760724,5.80244064 L89.0730863,5.80244064 L89.0730863,8.79003143 L94.0323148,8.79003143 L94.0323148,10.8133278 Z M108.3191,14.6618958 C107.85417,15.2186638 107.196964,15.650583 106.347462,15.9576664 C105.497961,16.2647498 104.556635,16.4182892 103.523457,16.4182892 C102.43862,16.4182892 101.48725,16.1815228 100.669318,15.707983 C99.8513854,15.2344432 99.2200085,14.5471033 98.775168,13.6459427 C98.3303276,12.7447821 98.1021709,11.6857907 98.0906912,10.4689369 L98.0906912,9.61656952 C98.0906912,8.36527644 98.3016285,7.281891 98.7235094,6.36638069 C99.1453903,5.45087039 99.7538081,4.75061596 100.548781,4.26559639 C101.343754,3.78057682 102.275035,3.53807068 103.342652,3.53807068 C104.82928,3.53807068 105.991588,3.89250274 106.829609,4.60137749 C107.667631,5.31025224 108.164123,6.34197957 108.3191,7.69659042 L105.805047,7.69659042 C105.690249,6.97910586 105.436263,6.45391504 105.043082,6.1210022 C104.6499,5.78808936 104.108925,5.62163544 103.42014,5.62163544 C102.541939,5.62163544 101.873253,5.95167339 101.414063,6.61175919 C100.954873,7.27184499 100.722411,8.25334915 100.716672,9.55630112 L100.716672,10.3570099 C100.716672,11.6714416 100.966352,12.6644254 101.465722,13.3359909 C101.965091,14.0075565 102.696914,14.3433342 103.661213,14.3433342 C104.631253,14.3433342 105.322897,14.1367017 105.736168,13.7234306 L105.736168,11.5623779 L103.385701,11.5623779 L103.385701,9.65961838 L108.3191,9.65961838 L108.3191,14.6618958 Z M117.043973,11.6570854 L114.986237,11.6570854 L114.986237,16.2460938 L112.403306,16.2460938 L112.403306,3.71026611 L117.061192,3.71026611 C118.54208,3.71026611 119.684299,4.04030406 120.487881,4.70038986 C121.291464,5.36047566 121.693249,6.2931916 121.693249,7.49856567 C121.693249,8.35380728 121.508141,9.06697623 121.137919,9.63809395 C120.767697,10.2092117 120.206633,10.6640901 119.454709,11.0027428 L122.166787,16.1255569 L122.166787,16.2460938 L119.39444,16.2460938 L117.043973,11.6570854 Z M114.986237,9.56491089 L117.069802,9.56491089 C117.718408,9.56491089 118.22064,9.39989191 118.576512,9.06984901 C118.932384,8.73980611 119.110318,8.28492772 119.110318,7.7052002 C119.110318,7.11399291 118.942429,6.64906989 118.606646,6.31041718 C118.270863,5.97176446 117.755717,5.80244064 117.061192,5.80244064 L114.986237,5.80244064 L114.986237,9.56491089 Z M132.725541,13.6631622 L128.196801,13.6631622 L127.335824,16.2460938 L124.589307,16.2460938 L129.255803,3.71026611 L131.649319,3.71026611 L136.341645,16.2460938 L133.595128,16.2460938 L132.725541,13.6631622 Z M128.894192,11.5709877 L132.028149,11.5709877 L130.452561,6.87866211 L128.894192,11.5709877 Z M142.087537,11.8292809 L142.087537,16.2460938 L139.504605,16.2460938 L139.504605,3.71026611 L144.394955,3.71026611 C145.336295,3.71026611 146.16426,3.88245983 146.878875,4.22685242 C147.593489,4.57124501 148.143074,5.06056214 148.527646,5.6948185 C148.912218,6.32907485 149.104501,7.0508535 149.104501,7.86017609 C149.104501,9.08850966 148.684061,10.0570993 147.843169,10.765974 C147.002277,11.4748488 145.838535,11.8292809 144.351907,11.8292809 L142.087537,11.8292809 Z M142.087537,9.73710632 L144.394955,9.73710632 C145.078001,9.73710632 145.598887,9.57639219 145.957629,9.25495911 C146.316371,8.93352602 146.49574,8.47434279 146.49574,7.87739563 C146.49574,7.26322884 146.314936,6.76673697 145.953324,6.38790512 C145.591712,6.00907327 145.09235,5.8139204 144.455224,5.80244064 L142.087537,5.80244064 L142.087537,9.73710632 Z M163.072724,16.2460938 L160.489793,16.2460938 L160.489793,10.8735962 L155.453076,10.8735962 L155.453076,16.2460938 L152.870145,16.2460938 L152.870145,3.71026611 L155.453076,3.71026611 L155.453076,8.79003143 L160.489793,8.79003143 L160.489793,3.71026611 L163.072724,3.71026611 L163.072724,16.2460938 Z" transform="translate(77.354 3.336)"/>
    <g fill-rule="nonzero">
      <path fill="#FFF" d="M37.777041,44.3858945 L26.9161417,49.1077984 L26.9161417,48.6356079 C24.8223947,49.1714323 22.5017211,49.4806866 20.3051595,49.5799884 C10.0905237,49.4806866 1.98285402,44.1350054 1.88885205,37.7752293 L1.88885205,35.4142775 C5.24354728,40.2914163 12.0733778,43.560676 20.3051595,43.4415138 C23.0892334,43.560676 25.9386681,43.1188841 28.3327808,42.497133 L29.2772068,40.1361812 C26.4380536,40.9835568 23.3389262,41.5726127 20.3051595,41.5527523 C10.0905237,41.5726127 1.98285402,36.2269313 1.88885205,29.7479931 L1.88885205,27.8592317 C5.24354728,32.3686159 12.0586899,35.6378755 20.3051595,35.4142775 C24.0145653,35.6378755 27.6424537,34.8573766 30.6938458,33.5255161 L31.1660588,31.1645642 C28.1859027,32.7367758 24.3230093,33.6498123 20.3051595,33.5255161 C10.0905237,33.6498123 1.98285402,28.3041309 1.88885205,21.7207569 L1.88885205,19.8319954 C5.24354728,24.4458154 12.0733778,27.7150751 20.3051595,27.8592317 C24.9839606,27.7150751 29.4196785,26.478058 33.0549108,24.5538991 L33.5271239,21.7207569 C30.2275079,24.166014 25.409907,25.7417382 20.3051595,25.9704702 C10.0905237,25.7417382 1.98285402,20.3960568 1.88885205,13.6935207 C1.98285402,7.31901823 10.0905237,1.97333691 20.3051595,1.88876147 C26.3939902,1.97333691 32.048796,4.10866417 35.4159759,7.55504587 L35.7439016,8.1015625 L38.125,8.11096737 L37.777041,7.55504587 C34.4282208,3.00418455 27.7305806,0 20.3051595,0 C9.00362602,0 0,6.229265 0,13.6935207 L0,14.165711 L0,38.2474197 C0.396570803,45.5340129 9.19456751,51.46875 20.3051595,51.46875 C27.6424537,51.46875 34.2372793,48.5823768 37.777041,44.3858945 Z"/>
      <path fill="#FABF2C" d="M33.359375,61 L37.171875,44.796875 L26.2109375,49.5625 L32.8828125,21.4453125 L20.015625,21.4453125 L23.3515625,7.625 L64.3359375,7.625 L61,21.4453125 L47.65625,21.4453125 L44.796875,29.0703125 L59.5703125,22.875 L33.359375,61 Z M40.03125,41.4609375 L38.125,50.9921875 L53.8515625,27.1640625 L40.984375,32.8828125 L46.703125,19.5390625 L59.5703125,19.5390625 L61.953125,9.53125 L24.78125,9.53125 L22.3984375,19.5390625 L35.265625,19.5390625 L29.0703125,46.2265625 L40.03125,41.4609375 Z"/>
    </g>
  </g>
</svg>
