<?xml version="1.0" encoding="utf-8"?>
<!-- Generator: Adobe Illustrator 22.0.0, SVG Export Plug-In . SVG Version: 6.00 Build 0)  -->
<svg version="1.1" id="Layer_1" xmlns="http://www.w3.org/2000/svg" xmlns:xlink="http://www.w3.org/1999/xlink" x="0px" y="0px"
	 viewBox="0 0 888.1 595.3" style="enable-background:new 0 0 888.1 595.3;" xml:space="preserve">
<style type="text/css">
	.st0{fill:#FFFFFF;}
</style>
<path class="st0" d="M513.4,697V719c0,3.4,2,6.4,5.1,7.7l23,9.6c2.7,1.1,5.8-0.9,5.8-3.8v-27.1c0-1.9-1.2-3.5-3-4l-26.6-7.6
	C515.5,693.2,513.4,694.8,513.4,697z"/>
<path class="st0" d="M570.4,693.4v20.5c0,2.1-0.8,4.2-2.3,5.7L554.5,734c-1.5,1.6-4.3,0.6-4.3-1.7v-28c0-1.4,0.7-2.7,1.9-3.5
	l14.4-9.5C568.2,690.2,570.4,691.4,570.4,693.4z"/>
<path class="st0" d="M542.6,680.2l20.2,4.8c2.1,0.5,2.6,3.3,0.8,4.5l-12.2,8c-2,1.3-4.5,1.7-6.9,1.1l-23.2-6.6
	c-2.3-0.7-2.5-3.8-0.3-4.7l16.4-6.7C539.2,679.9,540.9,679.8,542.6,680.2z"/>
</svg>
