<?xml version="1.0" encoding="utf-8"?>
<!-- Generator: Adobe Illustrator 22.0.0, SVG Export Plug-In . SVG Version: 6.00 Build 0)  -->
<svg version="1.1" id="Layer_1" xmlns="http://www.w3.org/2000/svg" xmlns:xlink="http://www.w3.org/1999/xlink" x="0px" y="0px"
	 viewBox="0 0 28 20.1" style="enable-background:new 0 0 28 20.1;" xml:space="preserve">
<style type="text/css">
	.st0{fill:#FCD63C;}
	.st1{fill:#234E9F;}
	.st2{fill:#DC2035;}
	.st3{fill:#88B9E2;}
	.st4{fill:#FFFFFF;}
	.st5{fill:#D97A2E;}
	.st6{fill:#F2B230;}
	.st7{fill:#3257A4;}
	.st8{fill-rule:evenodd;clip-rule:evenodd;fill:#FCD247;}
</style>
<g>
	<rect class="st3" width="28" height="6.8"/>
	<rect class="st4" width="28" height="20.1"/>
	<rect y="12.6" class="st7" width="28" height="2.6"/>
	<rect y="17.5" class="st7" width="28" height="2.6"/>
	<rect x="13.3" y="7.7" class="st7" width="14.7" height="2.6"/>
	<rect x="13.3" y="2.8" class="st7" width="14.7" height="2.6"/>
	<path class="st8" d="M6.5,7.9c1.1,0,2-0.9,2-2s-0.9-2-2-2c-1.1,0-2,0.9-2,2S5.4,7.9,6.5,7.9z M6.5,8.5C8,8.5,9.1,7.4,9.1,6
		c0-1.4-1.1-2.5-2.5-2.5S4,4.5,4,6C4,7.4,5.1,8.5,6.5,8.5z M6.5,8.5L5.7,9.9L5.4,8.3L4.1,9.1l0.5-1.5L2.9,7.7L4,6.5L2.5,6L4,5.4
		L2.9,4.2l1.6,0.1L4.1,2.8l1.4,0.8l0.2-1.6l0.9,1.3l0.9-1.3l0.2,1.6L9,2.8L8.6,4.4l1.6-0.1L9.1,5.4L10.5,6L9.1,6.5l1.1,1.2L8.6,7.6
		L9,9.1L7.7,8.3L7.4,9.9L6.5,8.5z"/>
</g>
</svg>
