<svg version="1.1" id="Layer_1" xmlns="http://www.w3.org/2000/svg" xmlns:xlink="http://www.w3.org/1999/xlink" x="0px" y="0px"
	 viewBox="0 0 2129.9 1951.5" style="enable-background:new 0 0 2129.9 1951.5;" xml:space="preserve">
<style type="text/css">
	.stg0{fill:#1E1C4C;}
	.stg1{fill:none;stroke:#1E1C4C;stroke-width:7.6585;stroke-linejoin:round;stroke-miterlimit:10;}
	.stg2{fill:none;stroke:#44BADA;stroke-width:7.6585;stroke-linejoin:round;stroke-miterlimit:10;}
	.stg3{fill:url(#SVGID_111_);}
	.stg4{fill:url(#SVGID_222_);}
	.stg5{fill:url(#SVGID_333_);}
	.stg6{opacity:0.2;}
	.stg7{fill:#79779E;}
	.stg8{fill:none;stroke:#EAE200;stroke-width:7.6585;stroke-linejoin:round;stroke-miterlimit:10;}
	.stg9{fill:url(#SVGID_444_);}
	.stg10{fill:url(#SVGID_555_);}
	.stg11{fill:url(#SVGID_666_);}
	.stg12{fill:none;stroke:#00EA78;stroke-width:7.6585;stroke-linejoin:round;stroke-miterlimit:10;}
	.stg13{fill:url(#SVGID_777_);}
	.stg14{fill:url(#SVGID_888_);}
	.stg15{fill:url(#SVGID_999_);}
</style>
<path class="stg0" d="M358.3,1909.2L56.4,1733.6c-21.4-12.5-21.3-43.5,0.2-55.8l303-173.6c27-15.5,60.3-15.4,87.2,0.3l301.9,175.6
	c21.4,12.5,21.3,43.5-0.2,55.8l-303,173.6C418.5,1925,385.2,1924.9,358.3,1909.2z"/>
<path class="stg0" d="M1652.6,1671.8l-301.9-175.6c-21.4-12.5-21.3-43.5,0.2-55.8l303-173.6c27-15.5,60.3-15.4,87.2,0.3l301.9,175.6
	c21.4,12.5,21.3,43.5-0.2,55.8l-303,173.6C1712.8,1687.5,1679.5,1687.4,1652.6,1671.8z"/>
<path class="stg0" d="M874.5,985.1L572.6,809.5c-21.4-12.5-21.3-43.5,0.2-55.8l303-173.6c27-15.5,60.3-15.4,87.2,0.3L1264.8,756
	c21.4,12.5,21.3,43.5-0.2,55.8l-303,173.6C934.6,1000.9,901.4,1000.8,874.5,985.1z"/>
<polyline class="stg1" points="560.7,1603.4 797.7,1467.5 1186.1,1692.2 1455.5,1536.9 "/>
<polyline class="stg1" points="1004.5,943.6 1198.1,1054.9 416.8,1504.9 "/>
<path class="stg2 block-1" d="M358.3,1847.9L56.4,1672.4c-21.4-12.5-21.3-43.5,0.2-55.8l303-173.6c27-15.5,60.3-15.4,87.2,0.3l301.9,175.6
	c21.4,12.5,21.3,43.5-0.2,55.8l-303,173.6C418.5,1863.7,385.2,1863.6,358.3,1847.9z"/>
<path class="stg2 block-1" d="M358.3,1774.3L56.4,1598.8c-21.4-12.5-21.3-43.5,0.2-55.8l303-173.6c27-15.5,60.3-15.4,87.2,0.3l301.9,175.6
	c21.4,12.5,21.3,43.5-0.2,55.8l-303,173.6C418.5,1790.1,385.2,1790,358.3,1774.3z"/>
<g class="block-1">
	<g>
		
			<linearGradient id="SVGID_111_" gradientUnits="userSpaceOnUse" x1="8298.2373" y1="1077.1342" x2="8925.3545" y2="1442.7668" gradientTransform="matrix(-1 0 0 1 8886.4326 0)">
			<stop  offset="0" style="stop-color:#2E2C72"/>
			<stop  offset="1" style="stop-color:#3697B3"/>
		</linearGradient>
		<path class="stg3" d="M38.8,1189.4c1.2,9.3,6.5,18,15.7,23.4l302.6,175.6c13.7,7.9,29,11.9,44.4,11.8c14.8-0.1,29.7-3.9,43.1-11.6
			L748.2,1215c9.4-5.4,14.7-14.4,16-23.9c1.5-12.1-3.8-24.9-15.8-31.9L445.7,983.6c-26.9-15.6-60.3-15.8-87.4-0.2L54.7,1157
			C42.5,1164.1,37.2,1177.2,38.8,1189.4z"/>
		
			<linearGradient id="SVGID_222_" gradientUnits="userSpaceOnUse" x1="8122.1313" y1="1461.7933" x2="8484.9756" y2="1461.7933" gradientTransform="matrix(-1 0 0 1 8886.4326 0)">
			<stop  offset="0" style="stop-color:#2A2765"/>
			<stop  offset="1" style="stop-color:#2E2C72"/>
		</linearGradient>
		<path class="stg4" d="M401.5,1400.2v332.3c14.8-0.1,29.7-3.9,43.1-11.6l303.7-173.6c10.5-6.1,15.9-16.5,16.1-27v-2.1l-0.2-327
			c-1.2,9.5-6.5,18.5-16,23.9l-303.7,173.6C431.2,1396.3,416.3,1400.1,401.5,1400.2z"/>
		
			<linearGradient id="SVGID_333_" gradientUnits="userSpaceOnUse" x1="8484.9756" y1="1460.9506" x2="8847.9521" y2="1460.9506" gradientTransform="matrix(-1 0 0 1 8886.4326 0)">
			<stop  offset="0" style="stop-color:#2E2C72"/>
			<stop  offset="1" style="stop-color:#3697B3"/>
		</linearGradient>
		<path class="stg5" d="M54.5,1545.1l302.6,175.6c13.7,7.9,29,11.9,44.4,11.8v-332.3c-15.4,0.1-30.6-3.9-44.4-11.8L54.5,1212.8
			c-9.2-5.4-14.5-14.1-15.7-23.4v323.4C37.2,1525,42.4,1538,54.5,1545.1z"/>
	</g>
	<g class="stg6">
		<g>
			<path class="stg7" d="M401.8,973.2v3.8h0c14.7,0,29.3,3.9,42,11.3l302.6,175.6c8.9,5.2,14.2,14.4,14.1,24.6
				c0,10.3-5.4,19.4-14.3,24.5l-303.7,173.6c-12.6,7.2-27,11-41.6,11c-14.7,0-29.3-3.9-42-11.3L56.5,1210.8
				c-8.9-5.2-14.2-14.4-14.1-24.6c0-10.3,5.4-19.4,14.3-24.5l303.7-173.6c12.6-7.2,27-11,41.6-11L401.8,973.2 M401.8,973.2
				c-15,0-30,3.8-43.5,11.5L54.7,1158.4c-21.6,12.3-21.7,43.3-0.2,55.8l302.6,175.6c13.6,7.9,28.8,11.8,43.9,11.8
				c15,0,30-3.8,43.5-11.5l303.7-173.6c21.6-12.3,21.7-43.3,0.2-55.8L445.8,985C432.2,977.2,417,973.2,401.8,973.2L401.8,973.2z"/>
		</g>
	</g>
</g>
<path class="stg8 block-2" d="M1652.6,1610.5l-301.9-175.6c-21.4-12.5-21.3-43.5,0.2-55.8l303-173.6c27-15.5,60.3-15.4,87.2,0.3l301.9,175.6
	c21.4,12.5,21.3,43.5-0.2,55.8l-303,173.6C1712.8,1626.3,1679.5,1626.2,1652.6,1610.5z"/>
<path class="stg8 block-2" d="M1652.6,1536.9l-301.9-175.6c-21.4-12.5-21.3-43.5,0.2-55.8l303-173.6c27-15.5,60.3-15.4,87.2,0.3l301.9,175.6
	c21.4,12.5,21.3,43.5-0.2,55.8l-303,173.6C1712.8,1552.7,1679.5,1552.6,1652.6,1536.9z"/>
<g class="block-2">
	<g>
		
			<linearGradient id="SVGID_444_" gradientUnits="userSpaceOnUse" x1="7003.9517" y1="834.7207" x2="7631.0688" y2="1200.3534" gradientTransform="matrix(-1 0 0 1 8886.4326 0)">
			<stop  offset="0" style="stop-color:#969200"/>
			<stop  offset="1" style="stop-color:#EAE200"/>
		</linearGradient>
		<path class="stg9" d="M1333.1,947c1.2,9.3,6.5,18,15.7,23.4l302.6,175.6c13.7,7.9,29,11.9,44.4,11.8c14.8-0.1,29.7-3.9,43.1-11.6
			l303.7-173.6c9.4-5.4,14.7-14.4,16-23.9c1.5-12.1-3.8-24.9-15.8-31.9L1740,741.2c-26.9-15.6-60.3-15.8-87.4-0.2L1349,914.6
			C1336.7,921.7,1331.4,934.8,1333.1,947z"/>
		
			<linearGradient id="SVGID_555_" gradientUnits="userSpaceOnUse" x1="6827.8457" y1="1219.3799" x2="7190.6904" y2="1219.3799" gradientTransform="matrix(-1 0 0 1 8886.4326 0)">
			<stop  offset="0" style="stop-color:#EAE200"/>
			<stop  offset="1" style="stop-color:#969200"/>
		</linearGradient>
		<path class="stg10" d="M1695.7,1157.8v332.3c14.8-0.1,29.7-3.9,43.1-11.6l303.7-173.6c10.5-6.1,15.9-16.5,16.1-27v-2.1l-0.2-327
			c-1.2,9.5-6.5,18.5-16,23.9l-303.7,173.6C1725.4,1153.9,1710.6,1157.7,1695.7,1157.8z"/>
		
			<linearGradient id="SVGID_666_" gradientUnits="userSpaceOnUse" x1="7190.6904" y1="1218.5371" x2="7553.6665" y2="1218.5371" gradientTransform="matrix(-1 0 0 1 8886.4326 0)">
			<stop  offset="0" style="stop-color:#969100"/>
			<stop  offset="1" style="stop-color:#44BADA"/>
		</linearGradient>
		<path class="stg11" d="M1348.8,1302.7l302.6,175.6c13.7,7.9,29,11.9,44.4,11.8v-332.3c-15.4,0.1-30.6-3.9-44.4-11.8l-302.6-175.6
			c-9.2-5.4-14.5-14.1-15.7-23.4v323.4C1331.4,1282.6,1336.7,1295.6,1348.8,1302.7z"/>
	</g>
	<g class="stg6">
		<g>
			<path class="stg7" d="M1696.1,734.6c14.7,0,29.3,3.9,42,11.3l302.6,175.6c8.9,5.2,14.2,14.4,14.1,24.6c0,10.3-5.4,19.4-14.3,24.5
				l-303.7,173.6c-12.6,7.2-27,11-41.6,11c-14.7,0-29.3-3.9-42-11.3l-302.6-175.6c-8.9-5.2-14.2-14.4-14.1-24.6
				c0-10.3,5.4-19.4,14.3-24.5l303.7-173.6C1667.2,738.5,1681.6,734.6,1696.1,734.6L1696.1,734.6 M1696.1,730.8
				c-15,0-30,3.8-43.5,11.5L1349,916c-21.6,12.3-21.7,43.3-0.2,55.8l302.6,175.6c13.6,7.9,28.8,11.8,43.9,11.8
				c15,0,30-3.8,43.5-11.5L2042.4,974c21.6-12.3,21.7-43.3,0.2-55.8l-302.6-175.6C1726.5,734.7,1711.3,730.8,1696.1,730.8
				L1696.1,730.8z"/>
		</g>
	</g>
</g>
<path class="stg12 block-3" d="M874.5,923.8L572.6,748.3c-21.4-12.5-21.3-43.5,0.2-55.8l303-173.6c27-15.5,60.3-15.4,87.2,0.3l301.9,175.6
	c21.4,12.5,21.3,43.5-0.2,55.8l-303,173.6C934.6,939.6,901.4,939.5,874.5,923.8z"/>
<path class="stg12 block-3" d="M874.5,850.2L572.6,674.7c-21.4-12.5-21.3-43.5,0.2-55.8l303-173.6c27-15.5,60.3-15.4,87.2,0.3l301.9,175.6
	c21.4,12.5,21.3,43.5-0.2,55.8l-303,173.6C934.6,866,901.4,865.9,874.5,850.2z"/>
<g class="block-3">
	<g>
		
			<linearGradient id="SVGID_777_" gradientUnits="userSpaceOnUse" x1="7782.0996" y1="148.0418" x2="8409.2168" y2="513.6745" gradientTransform="matrix(-1 0 0 1 8886.4326 0)">
			<stop  offset="0" style="stop-color:#00B05A"/>
			<stop  offset="1" style="stop-color:#00EA78"/>
		</linearGradient>
		<path class="stg13" d="M554.9,260.3c1.2,9.3,6.5,18,15.7,23.4l302.6,175.6c13.7,7.9,29,11.9,44.4,11.8c14.8-0.1,29.7-3.9,43.1-11.6
			l303.7-173.6c9.4-5.4,14.7-14.4,16-23.9c1.5-12.1-3.8-24.9-15.8-31.9L961.9,54.5c-26.9-15.6-60.3-15.8-87.4-0.2L570.9,227.9
			C558.6,235,553.3,248.1,554.9,260.3z"/>
		
			<linearGradient id="SVGID_888_" gradientUnits="userSpaceOnUse" x1="7605.9937" y1="532.7009" x2="7968.8384" y2="532.7009" gradientTransform="matrix(-1 0 0 1 8886.4326 0)">
			<stop  offset="0" style="stop-color:#00EA78"/>
			<stop  offset="1" style="stop-color:#00B05A"/>
		</linearGradient>
		<path class="stg14" d="M917.6,471.1v332.3c14.8-0.1,29.7-3.9,43.1-11.6l303.7-173.6c10.5-6.1,15.9-16.5,16.1-27V589l-0.2-327
			c-1.2,9.5-6.5,18.5-16,23.9L960.7,459.5C947.3,467.2,932.4,471,917.6,471.1z"/>
		
			<linearGradient id="SVGID_999_" gradientUnits="userSpaceOnUse" x1="7968.8384" y1="531.8582" x2="8331.8145" y2="531.8582" gradientTransform="matrix(-1 0 0 1 8886.4326 0)">
			<stop  offset="0" style="stop-color:#00AB58"/>
			<stop  offset="1" style="stop-color:#3697B3"/>
		</linearGradient>
		<path class="stg15" d="M570.6,616l302.6,175.6c13.7,7.9,29,11.9,44.4,11.8V471.1c-15.4,0.1-30.6-3.9-44.4-11.8L570.6,283.7
			c-9.2-5.4-14.5-14.1-15.7-23.4v323.4C553.3,595.9,558.5,608.9,570.6,616z"/>
	</g>
	<g class="stg6">
		<g>
			<path class="stg7" d="M918,44.1V48h0c14.7,0,29.3,3.9,42,11.3l302.6,175.6c8.9,5.2,14.2,14.4,14.1,24.6c0,10.3-5.4,19.4-14.3,24.5
				L958.7,457.6c-12.6,7.2-27,11-41.6,11c-14.7,0-29.3-3.9-42-11.3L572.6,281.8c-8.9-5.2-14.2-14.4-14.1-24.6
				c0-10.3,5.4-19.4,14.3-24.5L876.4,59c12.6-7.2,27-11,41.6-11L918,44.1 M918,44.1c-15,0-30,3.8-43.5,11.5L570.9,229.3
				c-21.6,12.3-21.7,43.3-0.2,55.8l302.6,175.6c13.6,7.9,28.8,11.8,43.9,11.8c15,0,30-3.8,43.5-11.5l303.7-173.6
				c21.6-12.3,21.7-43.3,0.2-55.8L961.9,55.9C948.3,48.1,933.2,44.1,918,44.1L918,44.1z"/>
		</g>
	</g>
</g>
</svg>
