<svg version="1.1" id="Layer_1" xmlns="http://www.w3.org/2000/svg" xmlns:xlink="http://www.w3.org/1999/xlink" x="0px" y="0px"
	 viewBox="0 0 3365.9 3040.2" style="enable-background:new 0 0 3365.9 3040.2;" xml:space="preserve">
<style type="text/css">
	.stv0{fill:none;stroke:#1E1C4C;stroke-width:7.6585;stroke-linejoin:round;stroke-miterlimit:10;}
	.stv1{fill:#1E1C4C;}
	.stv2{fill:none;stroke:#ED2F7A;stroke-width:8.6081;stroke-miterlimit:10;}
	.stv3{fill:none;stroke:#ED2F7A;stroke-width:3.2169;stroke-miterlimit:10;}
	.stv4{fill:url(#SVGID_1111_);}
	.stv5{fill:url(#SVGID_2222_);}
	.stv6{fill:url(#SVGID_3333_);}
	.stv7{fill:url(#SVGID_4444_);}
	.stv8{opacity:0.2;}
	.stv9{fill:#FFFFFF;}
	.stv10{fill:none;stroke:#44BADA;stroke-width:7.6585;stroke-linejoin:round;stroke-miterlimit:10;}
	.stv11{fill:url(#SVGID_5555_);}
	.stv12{fill:url(#SVGID_6666_);}
	.stv13{fill:url(#SVGID_7777_);}
	.stv14{fill:#79779E;}
	.stv15{fill:none;stroke:#EAE200;stroke-width:7.6585;stroke-linejoin:round;stroke-miterlimit:10;}
	.stv16{fill:url(#SVGID_8888_);}
	.stv17{fill:url(#SVGID_9999_);}
	.stv18{fill:url(#SVGID_1000_);}
	.stv19{fill:none;stroke:#00EA78;stroke-width:7.6585;stroke-linejoin:round;stroke-miterlimit:10;}
	.stv20{fill:url(#SVGID_1100_);}
	.stv21{fill:url(#SVGID_1200_);}
	.stv22{fill:url(#SVGID_1300_);}
</style>
<polyline class="stv0" points="2078.7,1137.6 1847.3,998.2 1022.7,1474.6 "/>
<path class="stv1" d="M2331.3,1473l339.4-197.4c24.1-14,24-48.8-0.2-62.7l-340.6-195.2c-30.4-17.4-67.8-17.3-98,0.3l-339.4,197.4
	c-24.1,14-24,48.8,0.2,62.7l340.6,195.2C2263.6,1490.7,2301,1490.6,2331.3,1473z"/>
<path class="stv2 block-1 animated--small" d="M2331.3,1404.1l339.4-197.4c24.1-14,24-48.8-0.2-62.7l-340.6-195.2c-30.4-17.4-67.8-17.3-98,0.3l-339.4,197.4
	c-24.1,14-24,48.8,0.2,62.7l340.6,195.2C2263.6,1421.9,2301,1421.7,2331.3,1404.1z"/>
<path class="stv3 block-1 animated--mid" d="M2331.3,1321.4l339.4-197.4c24.1-14,24-48.8-0.2-62.7l-340.6-195.2c-30.4-17.4-67.8-17.3-98,0.3l-339.4,197.4
	c-24.1,14-24,48.8,0.2,62.7l340.6,195.2C2263.6,1339.1,2301,1339,2331.3,1321.4z"/>
<g class="block-1 animated">
	<g>
		<linearGradient id="SVGID_1111_" gradientUnits="userSpaceOnUse" x1="2267.2893" y1="770.4561" x2="2675.3459" y2="770.4561">
			<stop  offset="0" style="stop-color:#ED2F7A"/>
			<stop  offset="1" style="stop-color:#D3A6B3"/>
		</linearGradient>
		<path class="stv4" d="M2657.3,1058l-340.2,197.4c-15.4,8.9-32.6,13.3-49.9,13.3V509.1c17.3,0.1,34.4-4.4,49.9-13.3l340.2-197.4
			c10.4-6,16.3-15.8,17.7-26.3v749.6C2676.8,1035.5,2671,1050.1,2657.3,1058z"/>
		<linearGradient id="SVGID_2222_" gradientUnits="userSpaceOnUse" x1="1962.8141" y1="81.8089" x2="2667.8179" y2="492.8522">
			<stop  offset="0" style="stop-color:#571F55"/>
			<stop  offset="1" style="stop-color:#ED2F7A"/>
		</linearGradient>
		<path class="stv5" d="M2690.5,272.2c-1.4,10.4-7.3,20.2-17.7,26.3l-340.2,197.4c-15.4,8.9-32.6,13.3-49.9,13.3
			c-16.7-0.1-33.4-4.4-48.4-13L1893,300.9c-10.6-6.1-16.6-16.2-17.9-26.9c-1.7-13.6,4.2-28,17.8-35.8L2233,40.8
			c30.3-17.6,67.7-17.7,98.2-0.3l341.4,195.2C2686.4,243.7,2692.3,258.4,2690.5,272.2z"/>
		<linearGradient id="SVGID_3333_" gradientUnits="userSpaceOnUse" x1="1874.8595" y1="771.4035" x2="2282.7683" y2="771.4035">
			<stop  offset="0" style="stop-color:#571F55"/>
			<stop  offset="1" style="stop-color:#ED2F7A"/>
		</linearGradient>
		<path class="stv6" d="M2282.8,509.1v759.6c-16.7-0.1-33.4-4.4-48.4-13L1893,1060.5c-11.8-6.8-17.9-18.6-18.1-30.4v-2.4l0.2-753.7
			c1.4,10.7,7.3,20.7,17.9,26.9l341.4,195.2C2249.4,504.7,2266.1,509,2282.8,509.1z"/>
		<linearGradient id="SVGID_4444_" gradientUnits="userSpaceOnUse" x1="2282.7683" y1="770.4561" x2="2690.825" y2="770.4561">
			<stop  offset="0" style="stop-color:#ED2F7A"/>
			<stop  offset="1" style="stop-color:#D3A6B3"/>
		</linearGradient>
		<path class="stv7" d="M2672.8,1058l-340.2,197.4c-15.4,8.9-32.6,13.3-49.9,13.3V509.1c17.3,0.1,34.4-4.4,49.9-13.3l340.2-197.4
			c10.4-6,16.3-15.8,17.7-26.3v749.6C2692.3,1035.5,2686.4,1050.1,2672.8,1058z"/>
	</g>
	<g class="stv8">
		<g>
			<path class="stv9" d="M2282.3,33.4c16.4,0,32.5,4.3,46.7,12.4L2670.4,241c10,5.7,16,16,16.1,27.6c0,11.5-5.9,21.9-15.9,27.7
				l-340.1,197.4c-14.3,8.3-30.7,12.7-47.2,12.7c-16.4,0-32.5-4.3-46.7-12.4l-341.4-195.2c-10-5.7-16-16-16.1-27.6
				s5.9-21.9,15.9-27.7l340.1-197.4C2249.4,37.8,2265.8,33.4,2282.3,33.4 M2282.3,29.1c-17.1,0-34.1,4.4-49.4,13.3l-340.1,197.4
				c-24.1,14-24,48.8,0.2,62.7l341.4,195.2c15.1,8.7,32,13,48.9,13c17.1,0,34.1-4.4,49.4-13.3L2672.8,300c24.1-14,24-48.8-0.2-62.7
				L2331.2,42.1C2316.1,33.5,2299.2,29.1,2282.3,29.1L2282.3,29.1z"/>
		</g>
	</g>
</g>
<polyline class="stv0" points="621.7,2405.6 2079.7,1568.2 1874.8,1461.4 2110.2,1335.4 "/>
<path class="stv1" d="M504.2,2772.9l-301.9-175.6c-21.4-12.5-21.3-43.5,0.2-55.8l303-173.6c27-15.5,60.3-15.4,87.2,0.3l301.9,175.6
	c21.4,12.5,21.3,43.5-0.2,55.8l-303,173.6C564.4,2788.6,531.1,2788.5,504.2,2772.9z"/>
<path class="stv1" d="M1798.5,2795.5l-301.9-175.6c-21.4-12.5-21.3-43.5,0.2-55.8l303-173.6c27-15.5,60.3-15.4,87.2,0.3l301.9,175.6
	c21.4,12.5,21.3,43.5-0.2,55.8l-303,173.6C1858.7,2811.2,1825.4,2811.1,1798.5,2795.5z"/>
<path class="stv1" d="M1020.3,1848.8l-301.9-175.6c-21.4-12.5-21.3-43.5,0.2-55.8l303-173.6c27-15.5,60.3-15.4,87.2,0.3l301.9,175.6
	c21.4,12.5,21.3,43.5-0.2,55.8l-303,173.6C1080.5,1864.6,1047.3,1864.4,1020.3,1848.8z"/>
<path class="stv10 block-2 animated--small animated--delay-1" d="M504.2,2711.6L202.3,2536c-21.4-12.5-21.3-43.5,0.2-55.8l303-173.6c27-15.5,60.3-15.4,87.2,0.3l301.9,175.6
	c21.4,12.5,21.3,43.5-0.2,55.8l-303,173.6C564.4,2727.4,531.1,2727.3,504.2,2711.6z"/>
<path class="stv10 block-2 animated--mid animated--delay-1" d="M504.2,2638l-301.9-175.6c-21.4-12.5-21.3-43.5,0.2-55.8l303-173.6c27-15.5,60.3-15.4,87.2,0.3l301.9,175.6
	c21.4,12.5,21.3,43.5-0.2,55.8l-303,173.6C564.4,2653.8,531.1,2653.7,504.2,2638z"/>
<g class="block-2 animated animated--delay-1">
	<g>
		
			<linearGradient id="SVGID_5555_" gradientUnits="userSpaceOnUse" x1="8487.5137" y1="1935.8193" x2="9114.6309" y2="2301.4521" gradientTransform="matrix(-1 0 0 1 9221.6016 0)">
			<stop  offset="0" style="stop-color:#2E2C72"/>
			<stop  offset="1" style="stop-color:#3697B3"/>
		</linearGradient>
		<path class="stv11" d="M184.7,2048.1c1.2,9.3,6.5,18,15.7,23.4L503,2247.1c13.7,7.9,29,11.9,44.4,11.8c14.8-0.1,29.7-3.9,43.1-11.6
			l303.7-173.6c9.4-5.4,14.7-14.4,16-23.9c1.5-12.1-3.8-24.9-15.8-31.9l-302.6-175.6c-26.9-15.6-60.3-15.8-87.4-0.2l-303.7,173.6
			C188.3,2022.8,183,2035.9,184.7,2048.1z"/>
		
			<linearGradient id="SVGID_6666_" gradientUnits="userSpaceOnUse" x1="8311.4082" y1="2320.4785" x2="8674.2529" y2="2320.4785" gradientTransform="matrix(-1 0 0 1 9221.6016 0)">
			<stop  offset="0" style="stop-color:#2A2765"/>
			<stop  offset="1" style="stop-color:#2E2C72"/>
		</linearGradient>
		<path class="stv12" d="M547.3,2258.9v332.3c14.8-0.1,29.7-3.9,43.1-11.6L894.1,2406c10.5-6.1,15.9-16.5,16.1-27v-2.1l-0.2-327
			c-1.2,9.5-6.5,18.5-16,23.9l-303.7,173.6C577.1,2255,562.2,2258.8,547.3,2258.9z"/>
		
			<linearGradient id="SVGID_7777_" gradientUnits="userSpaceOnUse" x1="8674.2529" y1="2319.6357" x2="9037.2285" y2="2319.6357" gradientTransform="matrix(-1 0 0 1 9221.6016 0)">
			<stop  offset="0" style="stop-color:#2E2C72"/>
			<stop  offset="1" style="stop-color:#3697B3"/>
		</linearGradient>
		<path class="stv13" d="M200.4,2403.8L503,2579.4c13.7,7.9,29,11.9,44.4,11.8v-332.3c-15.4,0.1-30.6-3.9-44.4-11.8l-302.6-175.6
			c-9.2-5.4-14.5-14.1-15.7-23.4v323.4C183,2383.7,188.3,2396.7,200.4,2403.8z"/>
	</g>
	<g class="stv8">
		<g>
			<path class="stv14" d="M547.7,1835.7c14.7,0,29.3,3.9,42,11.3l302.6,175.6c8.9,5.2,14.2,14.4,14.1,24.6c0,10.3-5.4,19.4-14.3,24.5
				l-303.7,173.6c-12.6,7.2-27,11-41.6,11c-14.7,0-29.3-3.9-42-11.3l-302.6-175.6c-8.9-5.2-14.2-14.4-14.1-24.6
				c0-10.3,5.4-19.4,14.3-24.5l303.7-173.6C518.8,1839.6,533.2,1835.7,547.7,1835.7L547.7,1835.7 M547.7,1831.9
				c-15,0-30,3.8-43.5,11.5l-303.7,173.6c-21.6,12.3-21.7,43.3-0.2,55.8L503,2248.4c13.6,7.9,28.8,11.8,43.9,11.8
				c15,0,30-3.8,43.5-11.5l303.7-173.6c21.6-12.3,21.7-43.3,0.2-55.8l-302.6-175.6C578.1,1835.8,562.9,1831.9,547.7,1831.9
				L547.7,1831.9z"/>
		</g>
	</g>
</g>
<path class="stv15 block-3 animated--small animated--delay-2" d="M1798.5,2734.2l-301.9-175.6c-21.4-12.5-21.3-43.5,0.2-55.8l303-173.6c27-15.5,60.3-15.4,87.2,0.3l301.9,175.6
	c21.4,12.5,21.3,43.5-0.2,55.8l-303,173.6C1858.7,2750,1825.4,2749.9,1798.5,2734.2z"/>
<path class="stv15 block-3 animated--mid animated--delay-2" d="M1798.5,2660.6L1496.6,2485c-21.4-12.5-21.3-43.5,0.2-55.8l303-173.6c27-15.5,60.3-15.4,87.2,0.3l301.9,175.6
	c21.4,12.5,21.3,43.5-0.2,55.8l-303,173.6C1858.7,2676.4,1825.4,2676.3,1798.5,2660.6z"/>
<g class="block-3 animated animated--delay-2">
	
		<linearGradient id="SVGID_8888_" gradientUnits="userSpaceOnUse" x1="7193.2285" y1="1958.4077" x2="7820.3457" y2="2324.0403" gradientTransform="matrix(-1 0 0 1 9221.6016 0)">
		<stop  offset="0" style="stop-color:#969200"/>
		<stop  offset="1" style="stop-color:#EAE200"/>
	</linearGradient>
	<path class="stv16" d="M1478.9,2070.7c1.2,9.3,6.5,18,15.7,23.4l302.6,175.6c13.7,7.9,29,11.9,44.4,11.8
		c14.8-0.1,29.7-3.9,43.1-11.6l303.7-173.6c9.4-5.4,14.7-14.4,16-23.9c1.5-12.1-3.8-24.9-15.8-31.9l-302.6-175.6
		c-26.9-15.6-60.3-15.8-87.4-0.2l-303.7,173.6C1482.6,2045.3,1477.3,2058.4,1478.9,2070.7z"/>
	
		<linearGradient id="SVGID_9999_" gradientUnits="userSpaceOnUse" x1="7017.1226" y1="2343.0669" x2="7379.9673" y2="2343.0669" gradientTransform="matrix(-1 0 0 1 9221.6016 0)">
		<stop  offset="0" style="stop-color:#EAE200"/>
		<stop  offset="1" style="stop-color:#969200"/>
	</linearGradient>
	<path class="stv17" d="M1841.6,2281.5v332.3c14.8-0.1,29.7-3.9,43.1-11.6l303.7-173.6c10.5-6.1,15.9-16.5,16.1-27v-2.1l-0.2-327
		c-1.2,9.5-6.5,18.5-16,23.9l-303.7,173.6C1871.3,2277.5,1856.4,2281.4,1841.6,2281.5z"/>
	
		<linearGradient id="SVGID_1000_" gradientUnits="userSpaceOnUse" x1="7379.9673" y1="2342.2241" x2="7742.9434" y2="2342.2241" gradientTransform="matrix(-1 0 0 1 9221.6016 0)">
		<stop  offset="0" style="stop-color:#969100"/>
		<stop  offset="1" style="stop-color:#44BADA"/>
	</linearGradient>
	<path class="stv18" d="M1494.7,2426.4l302.6,175.6c13.7,7.9,29,11.9,44.4,11.8v-332.3c-15.4,0.1-30.6-3.9-44.4-11.8l-302.6-175.6
		c-9.2-5.4-14.5-14.1-15.7-23.4v323.4C1477.3,2406.3,1482.6,2419.3,1494.7,2426.4z"/>
</g>
<path class="stv19 block-4 animated--small animated--delay-3" d="M1020.3,1787.5l-301.9-175.6c-21.4-12.5-21.3-43.5,0.2-55.8l303-173.6c27-15.5,60.3-15.4,87.2,0.3l301.9,175.6
	c21.4,12.5,21.3,43.5-0.2,55.8l-303,173.6C1080.5,1803.3,1047.3,1803.2,1020.3,1787.5z"/>
<path class="stv19 block-4 animated--mid animated--delay-3" d="M1020.3,1713.9l-301.9-175.6c-21.4-12.5-21.3-43.5,0.2-55.8l303-173.6c27-15.5,60.3-15.4,87.2,0.3l301.9,175.6
	c21.4,12.5,21.3,43.5-0.2,55.8l-303,173.6C1080.5,1729.7,1047.3,1729.6,1020.3,1713.9z"/>
<g class="block-4 animated animated--delay-3">
	<g>
		
			<linearGradient id="SVGID_1100_" gradientUnits="userSpaceOnUse" x1="7971.3765" y1="1011.7271" x2="8598.4941" y2="1377.3599" gradientTransform="matrix(-1 0 0 1 9221.6016 0)">
			<stop  offset="0" style="stop-color:#00B05A"/>
			<stop  offset="1" style="stop-color:#00EA78"/>
		</linearGradient>
		<path class="stv20" d="M700.8,1124c1.2,9.3,6.5,18,15.7,23.4l302.6,175.6c13.7,7.9,29,11.9,44.4,11.8c14.8-0.1,29.7-3.9,43.1-11.6
			l303.7-173.6c9.4-5.4,14.7-14.4,16-23.9c1.5-12.1-3.8-24.9-15.8-31.9l-302.6-175.6c-26.9-15.6-60.3-15.8-87.4-0.2l-303.7,173.6
			C704.5,1098.7,699.2,1111.8,700.8,1124z"/>
		
			<linearGradient id="SVGID_1200_" gradientUnits="userSpaceOnUse" x1="7795.2705" y1="1396.3862" x2="8158.1152" y2="1396.3862" gradientTransform="matrix(-1 0 0 1 9221.6016 0)">
			<stop  offset="0" style="stop-color:#00EA78"/>
			<stop  offset="1" style="stop-color:#00B05A"/>
		</linearGradient>
		<path class="stv21" d="M1063.5,1334.8v332.3c14.8-0.1,29.7-3.9,43.1-11.6l303.7-173.6c10.5-6.1,15.9-16.5,16.1-27v-2.1l-0.2-327
			c-1.2,9.5-6.5,18.5-16,23.9l-303.7,173.6C1093.2,1330.9,1078.3,1334.7,1063.5,1334.8z"/>
		
			<linearGradient id="SVGID_1300_" gradientUnits="userSpaceOnUse" x1="8158.1152" y1="1395.5436" x2="8521.0908" y2="1395.5436" gradientTransform="matrix(-1 0 0 1 9221.6016 0)">
			<stop  offset="0" style="stop-color:#00AB58"/>
			<stop  offset="1" style="stop-color:#3697B3"/>
		</linearGradient>
		<path class="stv22" d="M716.5,1479.7l302.6,175.6c13.7,7.9,29,11.9,44.4,11.8v-332.3c-15.4,0.1-30.6-3.9-44.4-11.8l-302.6-175.6
			c-9.2-5.4-14.5-14.1-15.7-23.4v323.4C699.2,1459.6,704.4,1472.6,716.5,1479.7z"/>
	</g>
	<g class="stv8">
		<g>
			<path class="stv14" d="M1063.9,907.8v3.8h0c14.7,0,29.3,3.9,42,11.3l302.6,175.6c8.9,5.2,14.2,14.4,14.1,24.6
				c0,10.3-5.4,19.4-14.3,24.5l-303.7,173.6c-12.6,7.2-27,11-41.6,11c-14.7,0-29.3-3.9-42-11.3l-302.6-175.6
				c-8.9-5.2-14.2-14.4-14.1-24.6c0-10.3,5.4-19.4,14.3-24.5l303.7-173.6c12.6-7.2,27-11,41.6-11L1063.9,907.8 M1063.9,907.8
				c-15,0-30,3.8-43.5,11.5L716.7,1093c-21.6,12.3-21.7,43.3-0.2,55.8l302.6,175.6c13.6,7.9,28.8,11.8,43.9,11.8
				c15,0,30-3.8,43.5-11.5l303.7-173.6c21.6-12.3,21.7-43.3,0.2-55.8l-302.6-175.6C1094.2,911.7,1079.1,907.8,1063.9,907.8
				L1063.9,907.8z"/>
		</g>
	</g>
</g>
</svg>
