<?xml version="1.0" encoding="utf-8"?>
<!-- Generator: Adobe Illustrator 22.0.0, SVG Export Plug-In . SVG Version: 6.00 Build 0)  -->
<svg version="1.1" id="Layer_1" xmlns="http://www.w3.org/2000/svg" xmlns:xlink="http://www.w3.org/1999/xlink" x="0px" y="0px"
	 viewBox="0 0 108.3 79.1" style="enable-background:new 0 0 108.3 79.1;" xml:space="preserve">
<style type="text/css">
	.st0{fill:#F8588C;}
	.st1{fill:#FFFFFF;}
</style>
<g>
	<polygon class="st0" points="5.6,79.1 0,0 108.3,5.6 88.3,70.1 	"/>
	<path class="st1" d="M14.1,35.1V32l7.2-7.4c1.6-1.7,2.4-3.1,2.4-4.2c0-1.6-1.1-2.7-2.7-2.7c-1.6,0-2.8,0.8-3.5,2.5l-3.5-2
		c1.3-2.9,4-4.4,6.9-4.4c1.9,0,3.5,0.6,4.9,1.8c1.3,1.2,2,2.8,2,4.8c0,2.2-1.1,4.4-3.4,6.7l-4.1,4.1h7.9v4H14.1z M45.1,29.3
		c0,3.9-2.9,6.3-7.5,6.3c-4.7,0-7.5-2.4-7.5-6.3c0-2.2,1-3.9,2.9-5.1c-1.5-1-2.2-2.5-2.2-4.3c0-1.9,0.7-3.4,1.9-4.5
		c1.3-1.1,2.9-1.6,4.9-1.6c1.9,0,3.6,0.5,4.9,1.6c1.3,1.1,1.9,2.6,1.9,4.5c0,1.9-0.7,3.3-2.2,4.3C44.1,25.4,45.1,27,45.1,29.3z
		 M37.5,25.8c-2,0-3.4,1.1-3.4,2.9c0,1.8,1.4,2.9,3.4,2.9s3.4-1.1,3.4-2.9C41,26.9,39.6,25.8,37.5,25.8z M37.5,17.6
		c-0.8,0-1.4,0.2-1.9,0.7c-0.5,0.4-0.7,1-0.7,1.8c0,0.7,0.2,1.4,0.7,1.8c0.5,0.4,1.1,0.7,1.9,0.7s1.4-0.2,1.9-0.7
		c0.5-0.5,0.7-1.1,0.7-1.8c0-0.7-0.2-1.3-0.7-1.8C39,17.8,38.3,17.6,37.5,17.6z M48.3,34.7c-1-1-1-2.6,0-3.6c1-1,2.6-1,3.6,0
		c1,1,1,2.6,0,3.6C50.9,35.7,49.3,35.7,48.3,34.7z M56.5,32.5c-1.5-2-2.2-4.6-2.2-7.9c0-3.3,0.7-5.9,2.2-7.9c1.5-2,3.6-3,6.2-3
		c2.6,0,4.7,1,6.2,3c1.5,2,2.2,4.6,2.2,7.9c0,3.3-0.7,5.9-2.2,7.9c-1.5,2-3.5,3-6.2,3C60,35.5,58,34.5,56.5,32.5z M62.6,17.7
		c-2.8,0-4.3,2.4-4.3,6.9c0,4.5,1.5,6.9,4.3,6.9c2.8,0,4.3-2.4,4.3-6.9C66.9,20.1,65.4,17.7,62.6,17.7z M88.1,29.3
		c0,3.9-2.9,6.3-7.5,6.3c-4.7,0-7.5-2.4-7.5-6.3c0-2.2,1-3.9,2.9-5.1c-1.5-1-2.2-2.5-2.2-4.3c0-1.9,0.7-3.4,1.9-4.5
		c1.3-1.1,2.9-1.6,4.9-1.6s3.6,0.5,4.9,1.6c1.3,1.1,1.9,2.6,1.9,4.5c0,1.9-0.7,3.3-2.2,4.3C87.2,25.4,88.1,27,88.1,29.3z M80.6,25.8
		c-2,0-3.4,1.1-3.4,2.9c0,1.8,1.4,2.9,3.4,2.9s3.4-1.1,3.4-2.9C84,26.9,82.6,25.8,80.6,25.8z M80.6,17.6c-0.8,0-1.4,0.2-1.9,0.7
		c-0.5,0.4-0.7,1-0.7,1.8c0,0.7,0.2,1.4,0.7,1.8c0.5,0.4,1.1,0.7,1.9,0.7s1.4-0.2,1.9-0.7c0.5-0.5,0.7-1.1,0.7-1.8
		c0-0.7-0.2-1.3-0.7-1.8C82,17.8,81.4,17.6,80.6,17.6z M14.1,63.3v-3.1l7.2-7.4c1.6-1.7,2.4-3.1,2.4-4.2c0-1.6-1.1-2.7-2.7-2.7
		c-1.6,0-2.8,0.8-3.5,2.5l-3.5-2c1.3-2.9,4-4.4,6.9-4.4c1.9,0,3.5,0.6,4.9,1.8c1.3,1.2,2,2.8,2,4.8c0,2.2-1.1,4.4-3.4,6.7l-4.1,4.1
		h7.9v4H14.1z M32.1,60.7c-1.5-2-2.2-4.6-2.2-7.9c0-3.3,0.7-5.9,2.2-7.9c1.5-2,3.6-3,6.2-3c2.6,0,4.7,1,6.2,3c1.5,2,2.2,4.6,2.2,7.9
		c0,3.3-0.7,5.9-2.2,7.9c-1.5,2-3.5,3-6.2,3C35.7,63.7,33.6,62.7,32.1,60.7z M38.3,45.9c-2.8,0-4.3,2.4-4.3,6.9
		c0,4.5,1.5,6.9,4.3,6.9s4.3-2.4,4.3-6.9C42.6,48.3,41.1,45.9,38.3,45.9z M53,42.3h3.6v21h-4.1V46.6l-4,1.1l-1-3.5L53,42.3z
		 M74.8,57.4c0,3.9-2.9,6.3-7.5,6.3c-4.7,0-7.5-2.4-7.5-6.3c0-2.2,1-3.9,2.9-5.1c-1.5-1-2.2-2.5-2.2-4.3c0-1.9,0.7-3.4,1.9-4.5
		c1.3-1.1,2.9-1.6,4.9-1.6s3.6,0.5,4.9,1.6c1.3,1.1,1.9,2.6,1.9,4.5c0,1.9-0.7,3.3-2.2,4.3C73.8,53.5,74.8,55.2,74.8,57.4z M67.3,54
		c-2,0-3.4,1.1-3.4,2.9c0,1.8,1.4,2.9,3.4,2.9s3.4-1.1,3.4-2.9C70.7,55.1,69.3,54,67.3,54z M67.3,45.7c-0.8,0-1.4,0.2-1.9,0.7
		c-0.5,0.4-0.7,1-0.7,1.8c0,0.7,0.2,1.4,0.7,1.8c0.5,0.4,1.1,0.7,1.9,0.7s1.4-0.2,1.9-0.7c0.5-0.5,0.7-1.1,0.7-1.8
		c0-0.7-0.2-1.3-0.7-1.8C68.7,46,68.1,45.7,67.3,45.7z"/>
</g>
</svg>
