<svg version="1.1" id="Layer_2" xmlns="http://www.w3.org/2000/svg" xmlns:xlink="http://www.w3.org/1999/xlink" x="0px" y="0px"
	 viewBox="0 0 729.3 650.9" style="enable-background:new 0 0 729.3 650.9;" xml:space="preserve">
<style type="text/css">
	.sta0{fill:none;stroke:#A7A8AB;stroke-width:0.4172;stroke-miterlimit:10;}
	.sta1{fill:#1E1C4C;}
	.sta2{fill:#1E1C4B;}
	.sta3{fill:none;stroke:#1E1C4C;stroke-width:1.6686;stroke-linejoin:round;stroke-miterlimit:10;}
	.sta4{fill:none;stroke:#44BADA;stroke-width:1.6686;stroke-linejoin:round;stroke-miterlimit:10;}
	.sta5{fill:none;stroke:url(#SVGID_11111_);stroke-width:1.6686;stroke-linejoin:round;stroke-miterlimit:10;}
	.sta6{fill:none;stroke:url(#SVGID_22222_);stroke-width:1.6686;stroke-linejoin:round;stroke-miterlimit:10;}
	.sta7{fill:none;stroke:url(#SVGID_33333_);stroke-width:1.6686;stroke-linejoin:round;stroke-miterlimit:10;}
	.sta8{fill:none;stroke:#48469B;stroke-width:0.6235;stroke-miterlimit:10;}
	.sta9{fill:url(#SVGID_44444_);}
	.sta10{fill:url(#SVGID_55555_);}
	.sta11{fill:url(#SVGID_66666_);}
	.sta12{fill:url(#SVGID_77777_);}
	.sta13{fill:url(#SVGID_88888_);}
	.sta14{fill:url(#SVGID_99999_);}
	.sta15{fill:url(#SVGID_10000_);}
	.sta16{fill:url(#SVGID_11000_);}
	.sta17{fill:none;stroke:#ED2F7A;stroke-width:1.6683;stroke-miterlimit:10;}
	.sta18{fill:none;stroke:#ED2F7A;stroke-width:0.6235;stroke-miterlimit:10;}
	.sta19{fill:url(#SVGID_12000_);}
	.sta20{fill:url(#SVGID_13000_);}
	.sta21{fill:url(#SVGID_14000_);}
</style>
<g>
	<polyline class="sta0" points="24.9,650.7 470.9,391.4 557,440.7 488.4,480.6 522.8,500.3 454.2,540.2 471.4,550.1 391.4,596.7 	"/>
	<polyline class="sta0" points="24.8,611 230.7,491.3 196.3,471.6 282,421.7 247.6,402 	"/>
	<polyline class="sta0" points="20.4,309.8 196.1,412.1 247.5,382.2 	"/>
	<polyline class="sta0" points="11.6,89.3 229.8,213.6 178.4,243.5 212.8,263.2 264.2,233.3 350.3,282.6 264.6,332.5 	"/>
	<polyline class="sta0" points="299,372.1 367.7,332.2 333.2,312.4 401.8,272.5 315.8,223.2 401.5,173.3 	"/>
	<polyline class="sta0" points="487.6,222.7 539,192.7 625.1,242.1 642.3,232.1 590.6,202.5 717.7,128.4 	"/>
	<polyline class="sta0" points="718,208 316.5,441.5 350.9,461.2 	"/>
	<polygon class="sta0" points="402.7,550.3 471.3,510.4 419.7,480.8 333.9,530.7 385.6,560.3 	"/>
</g>
<path class="sta1" d="M267.4,413.3l65.8-38.3c4.7-2.7,4.6-9.5,0-12.2l-66-37.8c-5.9-3.4-13.1-3.4-19,0.1l-65.8,38.3
	c-4.7,2.7-4.6,9.5,0,12.2l66,37.8C254.3,416.7,261.5,416.7,267.4,413.3z"/>
<path class="sta2" d="M549.4,465l65.8-38.3c4.7-2.7,4.6-9.5,0-12.2l-66-37.8c-5.9-3.4-13.1-3.4-19,0.1l-65.8,38.3
	c-4.7,2.7-4.6,9.5,0,12.2l66,37.8C536.3,468.4,543.5,468.4,549.4,465z"/>
<g>
	<polyline class="sta3" points="505.3,396.6 453.7,367 402.2,396.9 350.6,367.3 333.4,357.5 327.9,360.9 	"/>
	<polyline class="sta3" points="556.8,386.5 642.6,336.7 608.2,316.9 642.5,297 573.6,257.5 505,297.4 487.8,287.5 	"/>
	<polyline class="sta3" points="720,282.6 642.3,237.5 608,257.4 539.1,217.9 504.8,237.9 	"/>
	<polyline class="sta3" points="444.8,272.8 401.9,297.7 505.2,356.9 	"/>
	<polyline class="sta3" points="293.7,394.3 333.5,417 282.1,446.9 316.5,466.7 265.1,496.6 316.7,526.2 172.9,612.8 	"/>
	<polyline class="sta3" points="20.7,559.7 213.4,447.2 178.9,427.4 230.4,397.5 	"/>
	<polyline class="sta3" points="20.4,315.1 178.9,407.6 213.2,387.6 	"/>
	<polyline class="sta3" points="1,186.8 195.7,298.4 161.4,318.3 230.3,357.8 	"/>
	<polyline class="sta3" points="307.4,352.9 367.6,317.7 264.3,258.5 298.6,238.5 13.9,74.5 	"/>
	<polyline class="sta3" points="0.4,6.1 332.8,198.8 298.5,218.7 333,238.4 367.3,218.5 401.7,238.2 350.3,268.1 384.7,287.9
		436.1,257.9 	"/>
	<polyline class="sta3" points="517.2,449.3 454,486.1 488.5,505.8 419.9,545.7 385.4,526 254.9,602.3 	"/>
	<polyline class="sta3" points="391.4,602.1 625.8,465.7 728.9,524.9 	"/>
	<polyline class="sta3" points="562.5,449.2 591.4,465.8 540,495.7 591.6,525.3 557.3,545.3 670.8,611 	"/>
	<polyline class="sta3" points="570.6,398.5 659.8,346.5 728,385.8 	"/>
</g>
<path class="sta1" d="M472.4,284.3l65.8-38.3c4.7-2.7,4.6-9.5,0-12.2l-66-37.8c-5.9-3.4-13.1-3.4-19,0.1l-65.8,38.3
	c-4.7,2.7-4.6,9.5,0,12.2l66,37.8C459.3,287.7,466.5,287.7,472.4,284.3z"/>
<g>
	<polyline class="sta4" points="473.9,349.8 402.2,391.6 360.2,367.3 307.9,397.6 	"/>
	<linearGradient id="SVGID_11111_" gradientUnits="userSpaceOnUse" x1="487.3618" y1="316.5995" x2="643.4175" y2="316.5995">
		<stop  offset="0" style="stop-color:#ED2F7A"/>
		<stop  offset="1" style="stop-color:#44BADA"/>
	</linearGradient>
	<polyline class="sta5" points="556.8,381.2 642.6,331.3 608.2,311.6 642.5,291.6 573.6,252.1 505,292 487.8,282.2 	"/>
	<linearGradient id="SVGID_22222_" gradientUnits="userSpaceOnUse" x1="531.6534" y1="244.8575" x2="720.399" y2="244.8575">
		<stop  offset="0" style="stop-color:#ED2F7A"/>
		<stop  offset="1" style="stop-color:#44BADA"/>
	</linearGradient>
	<polyline class="sta6" points="720,277.3 642.3,232.1 608,252 539.1,212.6 532.1,217.1 	"/>
	<polyline class="sta4" points="289.9,386.9 333.5,411.6 282.1,441.6 316.5,461.3 265.1,491.2 316.7,520.8 163.2,613.7 	"/>
	<polyline class="sta4" points="20.7,554.4 213.4,441.8 178.9,422.1 232.3,390.7 	"/>
	<polyline class="sta4" points="20.4,309.8 178.9,402.2 215.4,381 	"/>
	<polyline class="sta4" points="1,181.5 195.7,293 161.4,313 204,337.6 	"/>
	<polyline class="sta4" points="318.3,340.9 367.6,312.3 264.3,253.1 298.6,233.2 13.9,69.1 	"/>
	<linearGradient id="SVGID_33333_" gradientUnits="userSpaceOnUse" x1="0" y1="116.9507" x2="394.3441" y2="116.9507">
		<stop  offset="0" style="stop-color:#44BADA"/>
		<stop  offset="1" style="stop-color:#ED2F7A"/>
	</linearGradient>
	<polyline class="sta7" points="0.4,0.7 332.8,193.4 298.5,213.3 333,233.1 376.7,207.7 393.9,217.4 	"/>
	<polyline class="sta4" points="517.2,444 454,480.7 488.5,500.4 419.9,540.3 385.4,520.6 254.9,596.9 	"/>
	<polyline class="sta4" points="391.4,596.7 625.8,460.3 728.9,519.6 	"/>
	<polyline class="sta4" points="562.5,443.8 591.4,460.4 540,490.4 591.6,520 557.3,539.9 670.8,605.6 	"/>
	<polyline class="sta4" points="585.4,384.5 659.8,341.2 728,380.5 	"/>
</g>
<path class="sta4" d="M549.4,451.6l65.8-38.3c4.7-2.7,4.6-9.5,0-12.2l-66-37.8c-5.9-3.4-13.1-3.4-19,0.1l-65.8,38.3
	c-4.7,2.7-4.6,9.5,0,12.2l66,37.8C536.3,455.1,543.5,455.1,549.4,451.6z"/>
<path class="sta8 block-2-tiny" d="M549.4,435.6l65.8-38.3c4.7-2.7,4.6-9.5,0-12.2l-66-37.8c-5.9-3.4-13.1-3.4-19,0.1l-65.8,38.3
	c-4.7,2.7-4.6,9.5,0,12.2l66,37.8C536.3,439,543.5,439,549.4,435.6z"/>
<g class="block-2">
	<linearGradient id="SVGID_44444_" gradientUnits="userSpaceOnUse" x1="538.0071" y1="366.2428" x2="617.0927" y2="366.2428">
		<stop  offset="0" style="stop-color:#2E2C72"/>
		<stop  offset="1" style="stop-color:#3697B3"/>
	</linearGradient>
	<path class="sta9" d="M613.6,384.6l-65.9,38.3c-3,1.7-6.3,2.6-9.7,2.6V353c3.3,0,6.7-0.9,9.7-2.6l65.9-38.3c2-1.2,3.2-3.1,3.4-5.1
		v70.5C617.4,380.2,616.2,383,613.6,384.6z"/>
	<linearGradient id="SVGID_55555_" gradientUnits="userSpaceOnUse" x1="499.3203" y1="282.6165" x2="635.9572" y2="362.2809">
		<stop  offset="0" style="stop-color:#2E2C72"/>
		<stop  offset="1" style="stop-color:#3697B3"/>
	</linearGradient>
	<path class="sta10" d="M619,307.1c-0.3,2-1.4,3.9-3.4,5.1l-65.9,38.3c-3,1.7-6.3,2.6-9.7,2.6c-3.2,0-6.5-0.9-9.4-2.5l-66.2-37.8
		c-2.1-1.2-3.2-3.1-3.5-5.2c-0.3-2.6,0.8-5.4,3.4-6.9l65.9-38.3c5.9-3.4,13.1-3.4,19-0.1l66.2,37.8
		C618.2,301.6,619.4,304.4,619,307.1z"/>
	<linearGradient id="SVGID_66666_" gradientUnits="userSpaceOnUse" x1="460.9503" y1="366.4264" x2="540.0071" y2="366.4264">
		<stop  offset="0" style="stop-color:#2A2765"/>
		<stop  offset="1" style="stop-color:#2E2C72"/>
	</linearGradient>
	<path class="sta11" d="M540,353v72.4c-3.2,0-6.5-0.9-9.4-2.5l-66.2-37.8c-2.3-1.3-3.5-3.6-3.5-5.9v-0.5l0-71.3
		c0.3,2.1,1.4,4,3.5,5.2l66.2,37.8C533.5,352.2,536.8,353,540,353z"/>
	<linearGradient id="SVGID_77777_" gradientUnits="userSpaceOnUse" x1="540.0071" y1="366.2428" x2="619.0927" y2="366.2428">
		<stop  offset="0" style="stop-color:#2E2C72"/>
		<stop  offset="1" style="stop-color:#3697B3"/>
	</linearGradient>
	<path class="sta12" d="M615.6,384.6l-65.9,38.3c-3,1.7-6.3,2.6-9.7,2.6V353c3.3,0,6.7-0.9,9.7-2.6l65.9-38.3c2-1.2,3.2-3.1,3.4-5.1
		v70.5C619.4,380.2,618.2,383,615.6,384.6z"/>
</g>
<path class="sta4" d="M267.4,399.9l65.8-38.3c4.7-2.7,4.6-9.5,0-12.2l-66-37.8c-5.9-3.4-13.1-3.4-19,0.1L182.4,350
	c-4.7,2.7-4.6,9.5,0,12.2l66,37.8C254.3,403.4,261.5,403.3,267.4,399.9z"/>
<path class="sta8 block-1-tiny" d="M267.4,383.9l65.8-38.3c4.7-2.7,4.6-9.5,0-12.2l-66-37.8c-5.9-3.4-13.1-3.4-19,0.1L182.4,334
	c-4.7,2.7-4.6,9.5,0,12.2l66,37.8C254.3,387.3,261.5,387.3,267.4,383.9z"/>
<g class="block-1">
	<g>
		<linearGradient id="SVGID_88888_" gradientUnits="userSpaceOnUse" x1="256.0072" y1="314.515" x2="335.0927" y2="314.515">
			<stop  offset="0" style="stop-color:#2E2C72"/>
			<stop  offset="1" style="stop-color:#3697B3"/>
		</linearGradient>
		<path class="sta13" d="M331.6,332.8l-65.9,38.3c-3,1.7-6.3,2.6-9.7,2.6v-72.4c3.3,0,6.7-0.9,9.7-2.6l65.9-38.3
			c2-1.2,3.2-3.1,3.4-5.1v70.5C335.4,328.5,334.2,331.3,331.6,332.8z"/>
		<linearGradient id="SVGID_99999_" gradientUnits="userSpaceOnUse" x1="217.3204" y1="230.8887" x2="353.9572" y2="310.5531">
			<stop  offset="0" style="stop-color:#2E2C72"/>
			<stop  offset="1" style="stop-color:#3697B3"/>
		</linearGradient>
		<path class="sta14" d="M337,255.4c-0.3,2-1.4,3.9-3.4,5.1l-65.9,38.3c-3,1.7-6.3,2.6-9.7,2.6c-3.2,0-6.5-0.9-9.4-2.5l-66.2-37.8
			c-2.1-1.2-3.2-3.1-3.5-5.2c-0.3-2.6,0.8-5.4,3.4-6.9l65.9-38.3c5.9-3.4,13.1-3.4,19-0.1l66.2,37.8
			C336.2,249.8,337.4,252.7,337,255.4z"/>
		<linearGradient id="SVGID_10000_" gradientUnits="userSpaceOnUse" x1="178.9503" y1="314.6986" x2="258.0072" y2="314.6986">
			<stop  offset="0" style="stop-color:#2A2765"/>
			<stop  offset="1" style="stop-color:#2E2C72"/>
		</linearGradient>
		<path class="sta15" d="M258,301.3v72.4c-3.2,0-6.5-0.9-9.4-2.5l-66.2-37.8c-2.3-1.3-3.5-3.6-3.5-5.9V327l0-71.3
			c0.3,2.1,1.4,4,3.5,5.2l66.2,37.8C251.5,300.4,254.8,301.3,258,301.3z"/>
		<linearGradient id="SVGID_11000_" gradientUnits="userSpaceOnUse" x1="258.0072" y1="314.515" x2="337.0927" y2="314.515">
			<stop  offset="0" style="stop-color:#2E2C72"/>
			<stop  offset="1" style="stop-color:#3697B3"/>
		</linearGradient>
		<path class="sta16" d="M333.6,332.8l-65.9,38.3c-3,1.7-6.3,2.6-9.7,2.6v-72.4c3.3,0,6.7-0.9,9.7-2.6l65.9-38.3
			c2-1.2,3.2-3.1,3.4-5.1v70.5C337.4,328.5,336.2,331.3,333.6,332.8z"/>
	</g>
</g>
<path class="sta17 " d="M472.4,270.9l65.8-38.3c4.7-2.7,4.6-9.5,0-12.2l-66-37.8c-5.9-3.4-13.1-3.4-19,0.1L387.4,221
	c-4.7,2.7-4.6,9.5,0,12.2l66,37.8C459.3,274.4,466.5,274.3,472.4,270.9z"/>
<path class="sta18 block-3-tiny" d="M472.4,254.9l65.8-38.3c4.7-2.7,4.6-9.5,0-12.2l-66-37.8c-5.9-3.4-13.1-3.4-19,0.1L387.4,205
	c-4.7,2.7-4.6,9.5,0,12.2l66,37.8C459.3,258.3,466.5,258.3,472.4,254.9z"/>
<g class="block-3">
	<linearGradient id="SVGID_12000_" gradientUnits="userSpaceOnUse" x1="401.0054" y1="14.6541" x2="537.6423" y2="94.3185">
		<stop  offset="0" style="stop-color:#571F55"/>
		<stop  offset="1" style="stop-color:#ED2F7A"/>
	</linearGradient>
	<path class="sta19" d="M542,51.6c-0.3,2-1.4,3.9-3.4,5.1l-65.9,38.3c-3,1.7-6.3,2.6-9.7,2.6c-3.2,0-6.5-0.9-9.4-2.5l-66.2-37.8
		c-2.1-1.2-3.2-3.1-3.5-5.2c-0.3-2.6,0.8-5.4,3.4-6.9l65.9-38.3c5.9-3.4,13.1-3.4,19-0.1l66.2,37.8C541.2,46,542.4,48.9,542,51.6z"
		/>
	<linearGradient id="SVGID_13000_" gradientUnits="userSpaceOnUse" x1="383.9589" y1="148.3046" x2="463.0158" y2="148.3046">
		<stop  offset="0" style="stop-color:#571F55"/>
		<stop  offset="1" style="stop-color:#ED2F7A"/>
	</linearGradient>
	<path class="sta20" d="M463,97.5v147.2c-3.2,0-6.5-0.9-9.4-2.5l-66.2-37.8c-2.3-1.3-3.5-3.6-3.5-5.9V198l0-146.1
		c0.3,2.1,1.4,4,3.5,5.2L453.6,95C456.5,96.6,459.8,97.5,463,97.5z"/>
	<linearGradient id="SVGID_14000_" gradientUnits="userSpaceOnUse" x1="463.0158" y1="148.1209" x2="542.1013" y2="148.1209">
		<stop  offset="0" style="stop-color:#ED2F7A"/>
		<stop  offset="1" style="stop-color:#D3A6B3"/>
	</linearGradient>
	<path class="sta21" d="M538.6,203.9l-65.9,38.3c-3,1.7-6.3,2.6-9.7,2.6V97.5c3.3,0,6.7-0.9,9.7-2.6l65.9-38.3c2-1.2,3.2-3.1,3.4-5.1
		v145.3C542.4,199.5,541.3,202.3,538.6,203.9z"/>
</g>
</svg>
