<svg version="1.1" id="Layer_1" xmlns="http://www.w3.org/2000/svg" xmlns:xlink="http://www.w3.org/1999/xlink" x="0px" y="0px"
	 viewBox="0 0 1047.5 207.7" style="enable-background:new 0 0 1047.5 207.7;" xml:space="preserve">
<g>
	<g>
		<path d="M323.9,155l-37.6-52.4v49.6c0,3.8-1.4,7.1-4.3,9.8c-2.8,2.7-6.4,4.1-10.6,4.1c-4.2,0-7.7-1.4-10.6-4.1
			c-2.8-2.7-4.3-6-4.3-9.8V46.7c0-3.8,1.4-7.1,4.3-9.8c2.8-2.7,6.4-4.1,10.6-4.1c4.2,0,7.7,1.4,10.6,4.1c2.8,2.7,4.3,6,4.3,9.8v44.4
			l37.2-50c4.2-5.6,8.9-8.3,14.3-8.3c4.2,0,7.4,1.1,9.6,3.4c2.2,2.3,3.3,5.1,3.3,8.6c0,3.8-1.2,7.2-3.7,10.3l-31.6,39.3l36,48.3
			c2,2.5,3,5.4,3,8.8c0,3.9-1.3,7.3-3.8,10.2c-2.5,2.9-5.9,4.3-10,4.3c-3.2,0-6.1-0.8-8.6-2.5C329.5,161.9,326.8,159,323.9,155z"/>
		<path d="M388.7,46.7c0-3.8,1.4-7.1,4.3-9.8c2.8-2.7,6.4-4.1,10.6-4.1c4.2,0,7.7,1.4,10.6,4.1c2.8,2.7,4.3,6,4.3,9.8v105.5
			c0,3.8-1.4,7.1-4.3,9.8c-2.8,2.7-6.4,4.1-10.6,4.1c-4.2,0-7.7-1.4-10.6-4.1c-2.8-2.7-4.3-6-4.3-9.8V46.7z"/>
		<path d="M544.2,64.1c-2.1,0-4.5-0.5-7.2-1.5c-4.6-1.6-9.7-2.4-15.4-2.4c-10.5,0-19.2,3.5-26,10.4c-6.8,6.9-10.3,16.5-10.3,28.9
			c0,11.5,3.6,20.9,10.9,28.2c7.3,7.3,16.7,11,28.3,11c5.3,0,10.2-0.9,14.8-2.6c3-1.2,5.9-1.9,8.7-1.9c4.9,0,8.5,2.2,10.7,6.5
			c1.1,2.2,1.7,4.4,1.7,6.5c0,5.4-3,9.7-9.1,12.8c-8.3,4.3-18.1,6.5-29.6,6.5c-20.1,0-36.5-6.1-49.1-18.4
			c-12.6-12.3-18.9-28.5-18.9-48.6c0-19.5,5.9-35.5,17.8-48.1s28.5-18.9,50-18.9c10.6,0,19.3,1.7,25.9,5.2c6.5,3.5,9.8,7.7,9.8,12.8
			c0,2.3-0.6,4.7-1.9,7C552.9,61.8,549.1,64.1,544.2,64.1z"/>
		<path d="M657.8,155l-37.6-52.4v49.6c0,3.8-1.4,7.1-4.3,9.8c-2.8,2.7-6.4,4.1-10.6,4.1c-4.2,0-7.7-1.4-10.6-4.1
			c-2.8-2.7-4.3-6-4.3-9.8V46.7c0-3.8,1.4-7.1,4.3-9.8c2.8-2.7,6.4-4.1,10.6-4.1c4.2,0,7.7,1.4,10.6,4.1c2.8,2.7,4.3,6,4.3,9.8v44.4
			l37.2-50c4.2-5.6,8.9-8.3,14.3-8.3c4.2,0,7.4,1.1,9.6,3.4c2.2,2.3,3.3,5.1,3.3,8.6c0,3.8-1.2,7.2-3.7,10.3l-31.6,39.3l36,48.3
			c2,2.5,3,5.4,3,8.8c0,3.9-1.3,7.3-3.8,10.2c-2.5,2.9-5.9,4.3-10,4.3c-3.2,0-6.1-0.8-8.6-2.5C663.5,161.9,660.8,159,657.8,155z"/>
		<path d="M722.6,46.7c0-3.8,1.4-7.1,4.3-9.8c2.8-2.7,6.4-4.1,10.6-4.1c4.2,0,7.7,1.4,10.6,4.1c2.8,2.7,4.3,6,4.3,9.8v105.5
			c0,3.8-1.4,7.1-4.3,9.8c-2.8,2.7-6.4,4.1-10.6,4.1c-4.2,0-7.7-1.4-10.6-4.1c-2.8-2.7-4.3-6-4.3-9.8V46.7z"/>
		<path d="M878.1,64.1c-2.1,0-4.5-0.5-7.2-1.5c-4.6-1.6-9.7-2.4-15.4-2.4c-10.5,0-19.2,3.5-26,10.4c-6.8,6.9-10.3,16.5-10.3,28.9
			c0,11.5,3.6,20.9,10.9,28.2c7.3,7.3,16.7,11,28.3,11c5.3,0,10.2-0.9,14.8-2.6c3-1.2,5.9-1.9,8.7-1.9c4.9,0,8.5,2.2,10.7,6.5
			c1.1,2.2,1.7,4.4,1.7,6.5c0,5.4-3,9.7-9.1,12.8c-8.3,4.3-18.1,6.5-29.6,6.5c-20.1,0-36.5-6.1-49.1-18.4
			c-12.6-12.3-18.9-28.5-18.9-48.6c0-19.5,5.9-35.5,17.8-48.1c11.8-12.6,28.5-18.9,50-18.9c10.6,0,19.3,1.7,25.9,5.2
			c6.5,3.5,9.8,7.7,9.8,12.8c0,2.3-0.6,4.7-1.9,7C886.8,61.8,883.1,64.1,878.1,64.1z"/>
		<path d="M978.6,166.4c-20.1,0-36.6-6.1-49.5-18.3c-12.9-12.2-19.3-28.4-19.3-48.7c0-19.1,6.4-35.1,19.2-47.9
			c12.8-12.8,29.3-19.2,49.7-19.2c20.1,0,36.6,6.1,49.5,18.3c12.9,12.2,19.3,28.4,19.3,48.7c0,19.5-6.5,35.5-19.5,48.1
			C1015,160.1,998.5,166.4,978.6,166.4z M978.6,60.2c-10.9,0-19.8,3.6-26.8,10.8c-7,7.2-10.6,16.7-10.6,28.4
			c0,11.1,3.6,20.4,10.9,28c7.3,7.5,16.1,11.3,26.5,11.3c11.8,0,21-3.7,27.6-11c6.5-7.3,9.8-16.8,9.8-28.2c0-11.6-3.6-21-10.7-28.3
			C998.1,63.8,989.3,60.2,978.6,60.2z"/>
	</g>
	<path d="M200.1,63.4c-5.2-12.4-12.8-23.5-22.3-33c-9.6-9.5-20.7-17-33.1-22.2C131.8,2.7,118.2,0,104.1,0S76.4,2.7,63.6,8.2
		c-12.4,5.2-23.5,12.7-33.1,22.2c-9.6,9.5-17.1,20.6-22.3,33C2.8,76.2,0,89.8,0,103.8c0,14,2.8,27.6,8.2,40.4
		c5.2,12.4,12.8,23.5,22.3,33c9.6,9.5,20.7,17,33.1,22.2c12.8,5.4,26.5,8.2,40.5,8.2s27.7-2.7,40.5-8.2
		c12.4-5.2,23.5-12.7,33.1-22.2c9.6-9.5,17.1-20.6,22.3-33c5.4-12.8,8.2-26.4,8.2-40.4C208.3,89.8,205.5,76.2,200.1,63.4z
		 M167.6,167.1c-15.2,15.2-35,24.2-56.2,25.9l-0.2-61.1l23.5,15c1.2,0.8,2.5,1.1,3.9,1.1c2.4,0,4.7-1.2,6.1-3.3
		c2.1-3.3,1.2-7.8-2.2-9.9l-34.6-22c0,0,0,0,0,0c-0.1,0-0.2-0.1-0.2-0.1c-0.1-0.1-0.2-0.1-0.3-0.2c0,0-0.1,0-0.1-0.1
		c-0.1,0-0.1-0.1-0.2-0.1c-0.1,0-0.2-0.1-0.3-0.1c0,0-0.1,0-0.1-0.1c-0.1,0-0.1,0-0.2-0.1c-0.1,0-0.2-0.1-0.3-0.1
		c-0.1,0-0.1,0-0.2,0c0,0-0.1,0-0.1,0c0,0-0.1,0-0.1,0c-0.1,0-0.2-0.1-0.3-0.1c-0.1,0-0.1,0-0.2,0c0,0,0,0,0,0c-0.1,0-0.1,0-0.2,0
		c-0.1,0-0.2,0-0.3,0c0,0-0.1,0-0.1,0c-0.1,0-0.2,0-0.3,0c-0.1,0-0.1,0-0.2,0c0,0,0,0,0,0c0,0,0,0-0.1,0c0,0-0.1,0-0.1,0
		c-0.1,0-0.3,0-0.4,0c-0.1,0-0.2,0-0.2,0c-0.1,0-0.3,0-0.4,0.1c-0.1,0-0.2,0-0.3,0c0,0,0,0,0,0c-0.1,0-0.2,0.1-0.3,0.1
		c-0.1,0-0.2,0.1-0.3,0.1c0,0,0,0,0,0c-0.1,0-0.2,0.1-0.3,0.1c-0.1,0-0.2,0.1-0.4,0.1c0,0,0,0-0.1,0c-0.1,0-0.1,0.1-0.2,0.1
		c-0.1,0.1-0.2,0.1-0.3,0.2c0,0-0.1,0-0.1,0.1c0,0,0,0,0,0l-35.9,20.8c-3.4,2-4.6,6.4-2.6,9.8c1.3,2.3,3.7,3.6,6.2,3.6
		c1.2,0,2.5-0.3,3.6-1l25.2-14.6l0.2,61.7c-21.3-1.6-41.1-10.7-56.4-25.9c-17-16.9-26.3-39.4-26.3-63.3c0-13.8,3.2-27.2,9.1-39.3
		l51.4,29.2L50.3,107c-3.5,1.9-4.8,6.2-2.9,9.7c1.3,2.4,3.8,3.8,6.3,3.8c1.2,0,2.3-0.3,3.4-0.9l35.9-19.3c0,0,0.1,0,0.1-0.1
		c0.1,0,0.1-0.1,0.2-0.1c0.1-0.1,0.2-0.1,0.4-0.2c0.1,0,0.1-0.1,0.1-0.1c0,0,0,0,0,0c0.1-0.1,0.2-0.1,0.2-0.2c0,0,0.1-0.1,0.2-0.1
		c0.1-0.1,0.2-0.2,0.3-0.3c0,0,0.1-0.1,0.1-0.1c0,0,0,0,0,0c0.1-0.1,0.2-0.2,0.3-0.4c0,0,0.1-0.1,0.1-0.1c0,0,0.1-0.1,0.1-0.1
		c0,0,0.1-0.1,0.1-0.1c0,0,0.1-0.1,0.1-0.1c0.1-0.1,0.1-0.1,0.2-0.2c0.1-0.1,0.1-0.2,0.2-0.3c0,0,0,0,0,0c0,0,0-0.1,0.1-0.1
		c0,0,0,0,0-0.1c0,0,0.1-0.1,0.1-0.1c0-0.1,0.1-0.2,0.1-0.2c0,0,0,0,0,0c0-0.1,0.1-0.1,0.1-0.2c0,0,0-0.1,0.1-0.1
		c0-0.1,0-0.1,0.1-0.2c0,0,0-0.1,0-0.1c0-0.1,0.1-0.2,0.1-0.3c0,0,0-0.1,0-0.1c0-0.1,0-0.1,0-0.2c0,0,0-0.1,0-0.1
		c0-0.1,0.1-0.2,0.1-0.3c0,0,0-0.1,0-0.1c0-0.1,0-0.1,0-0.2c0-0.1,0-0.3,0.1-0.4c0,0,0,0,0-0.1c0-0.1,0-0.2,0-0.3c0-0.1,0-0.2,0-0.4
		c0,0,0-0.1,0-0.1v0l-0.1-41.4c0-3.9-3.2-7.1-7.2-7.1c0,0,0,0,0,0c-4,0-7.2,3.2-7.2,7.2l0.1,29L30.8,52.2c2.9-4.1,6.2-8.1,9.9-11.7
		c17-16.9,39.5-26.2,63.5-26.2c24,0,46.5,9.3,63.5,26.2c3.7,3.7,7,7.6,9.9,11.8c-0.1,0-0.2,0.1-0.3,0.1l-51.1,29.2l0.1-29
		c0-4-3.2-7.2-7.2-7.2c0,0,0,0,0,0c-4,0-7.2,3.2-7.2,7.1l-0.1,41.4l0,0c0,0,0,0.1,0,0.1c0,0.1,0,0.2,0,0.4c0,0.1,0,0.2,0,0.3
		c0,0,0,0,0,0.1c0,0.1,0,0.3,0.1,0.4c0,0.1,0,0.1,0,0.2c0,0,0,0.1,0,0.1c0,0.1,0.1,0.2,0.1,0.3c0,0,0,0,0,0.1c0,0.1,0,0.1,0,0.2
		c0,0,0,0.1,0,0.1c0,0.1,0.1,0.2,0.1,0.3c0,0,0,0.1,0,0.1c0,0.1,0,0.1,0.1,0.2c0,0,0,0.1,0.1,0.1c0,0.1,0.1,0.1,0.1,0.2c0,0,0,0,0,0
		c0,0.1,0.1,0.2,0.1,0.2c0,0,0.1,0.1,0.1,0.1c0,0,0,0,0,0.1c0,0,0,0.1,0.1,0.1c0.1,0.1,0.1,0.2,0.2,0.3c0,0.1,0.1,0.1,0.2,0.2
		c0,0,0.1,0.1,0.1,0.1c0,0,0.1,0.1,0.1,0.1c0,0,0.1,0.1,0.1,0.1c0,0,0.1,0.1,0.1,0.1c0.1,0.1,0.2,0.3,0.3,0.4c0,0,0,0,0,0
		c0,0,0.1,0.1,0.1,0.1c0.1,0.1,0.2,0.2,0.3,0.3c0,0,0.1,0.1,0.1,0.1c0.1,0.1,0.2,0.1,0.2,0.2c0,0,0,0,0,0c0.1,0,0.1,0.1,0.2,0.1
		c0.1,0.1,0.2,0.1,0.4,0.2c0.1,0,0.1,0.1,0.2,0.1c0,0,0.1,0,0.1,0.1l35.9,19.3c1.1,0.6,2.3,0.9,3.4,0.9c2.6,0,5-1.4,6.3-3.8
		c1.9-3.5,0.6-7.8-2.9-9.7l-24.6-13.2l50.7-28.9c0.2-0.1,0.3-0.2,0.5-0.3c5.9,12.1,9.1,25.4,9.1,39.3
		C193.9,127.7,184.6,150.2,167.6,167.1z"/>
</g>
</svg>
