<?xml version="1.0" encoding="utf-8"?>
<!-- Generator: Adobe Illustrator 22.0.0, SVG Export Plug-In . SVG Version: 6.00 Build 0)  -->
<svg version="1.1" id="Layer_1" xmlns="http://www.w3.org/2000/svg" xmlns:xlink="http://www.w3.org/1999/xlink" x="0px" y="0px"
	 viewBox="0 0 816.1 1481.2" style="enable-background:new 0 0 816.1 1481.2;" xml:space="preserve">
<path style="fill:#1E1C4C;" d="M456.5,1445.4L795.9,1248c24.1-14,24-48.8-0.2-62.7L455.1,990.2c-30.4-17.4-67.8-17.3-98,0.3
	L17.7,1187.8c-24.1,14-24,48.8,0.2,62.7l340.6,195.2C388.9,1463.2,426.3,1463,456.5,1445.4z"/>
<path style="fill:none;stroke:#ED2F7A;stroke-width:8.6081;stroke-miterlimit:10;" d="M456.5,1376.6l339.4-197.4
	c24.1-14,24-48.8-0.2-62.7L455.1,921.3c-30.4-17.4-67.8-17.3-98,0.3L17.7,1119c-24.1,14-24,48.8,0.2,62.7l340.6,195.2
	C388.9,1394.3,426.3,1394.2,456.5,1376.6z"/>
<path style="fill:none;stroke:#ED2F7A;stroke-width:3.2169;stroke-miterlimit:10;" d="M456.5,1293.8l339.4-197.4
	c24.1-14,24-48.8-0.2-62.7L455.1,838.6c-30.4-17.4-67.8-17.3-98,0.3L17.7,1036.2c-24.1,14-24,48.8,0.2,62.7l340.6,195.2
	C388.9,1311.6,426.3,1311.4,456.5,1293.8z"/>
<g>
	<g>
		
			<linearGradient id="SVGID_1_" gradientUnits="userSpaceOnUse" x1="392.5" y1="104.85" x2="800.6155" y2="104.85" gradientTransform="matrix(1 0 0 1 0 638)">
			<stop  offset="0" style="stop-color:#ED2F7A"/>
			<stop  offset="1" style="stop-color:#D3A6B3"/>
		</linearGradient>
		<path style="fill:url(#SVGID_1_);" d="M782.6,1030.5l-340.2,197.4c-15.4,8.9-32.6,13.3-49.9,13.3V481.5
			c17.3,0.1,34.4-4.4,49.9-13.3l340.2-197.4c10.4-6,16.3-15.8,17.7-26.3v749.6C802.1,1007.9,796.2,1022.6,782.6,1030.5z"/>
		
			<linearGradient id="SVGID_2_" gradientUnits="userSpaceOnUse" x1="88.0574" y1="-583.7388" x2="793.0612" y2="-172.6954" gradientTransform="matrix(1 0 0 1 0 638)">
			<stop  offset="0" style="stop-color:#571F55"/>
			<stop  offset="1" style="stop-color:#ED2F7A"/>
		</linearGradient>
		<path style="fill:url(#SVGID_2_);" d="M815.8,244.6c-1.4,10.4-7.3,20.2-17.7,26.3L457.9,468.3c-15.4,8.9-32.6,13.3-49.9,13.3
			c-16.7-0.1-33.4-4.4-48.4-13L18.2,273.4c-10.6-6.1-16.6-16.2-17.9-26.9c-1.7-13.6,4.2-28,17.8-35.8L358.2,13.3
			C388.5-4.3,426-4.5,456.4,13l341.4,195.2C811.6,216.1,817.6,230.8,815.8,244.6z"/>
		
			<linearGradient id="SVGID_3_" gradientUnits="userSpaceOnUse" x1="0.1" y1="105.7999" x2="408" y2="105.7999" gradientTransform="matrix(1 0 0 1 0 638)">
			<stop  offset="0" style="stop-color:#571F55"/>
			<stop  offset="1" style="stop-color:#ED2F7A"/>
		</linearGradient>
		<path style="fill:url(#SVGID_3_);" d="M408,481.5v759.6c-16.7-0.1-33.4-4.4-48.4-13L18.2,1033c-11.8-6.8-17.9-18.6-18.1-30.4v-2.4
			l0.2-753.7c1.4,10.7,7.3,20.7,17.9,26.9l341.4,195.2C374.6,477.2,391.4,481.5,408,481.5z"/>
		
			<linearGradient id="SVGID_4_" gradientUnits="userSpaceOnUse" x1="408" y1="104.85" x2="816.1155" y2="104.85" gradientTransform="matrix(1 0 0 1 0 638)">
			<stop  offset="0" style="stop-color:#ED2F7A"/>
			<stop  offset="1" style="stop-color:#D3A6B3"/>
		</linearGradient>
		<path style="fill:url(#SVGID_4_);" d="M798.1,1030.5l-340.2,197.4c-15.4,8.9-32.6,13.3-49.9,13.3V481.5
			c17.3,0.1,34.4-4.4,49.9-13.3l340.2-197.4c10.4-6,16.3-15.8,17.7-26.3v749.6C817.6,1007.9,811.7,1022.6,798.1,1030.5z"/>
	</g>
</g>
</svg>
