<?xml version="1.0" encoding="utf-8"?>
<!-- Generator: Adobe Illustrator 22.0.0, SVG Export Plug-In . SVG Version: 6.00 Build 0)  -->
<svg version="1.1" id="Layer_1" xmlns="http://www.w3.org/2000/svg" xmlns:xlink="http://www.w3.org/1999/xlink" x="0px" y="0px"
	 viewBox="0 0 816.1 1481.2" style="enable-background:new 0 0 816.1 1481.2;" xml:space="preserve">
<style type="text/css">
	.st0{fill:#1E1C4C;}
	.st1{fill:none;stroke:#ED2F7A;stroke-width:8.6081;stroke-miterlimit:10;}
	.st2{fill:none;stroke:#ED2F7A;stroke-width:3.2169;stroke-miterlimit:10;}
	.st3{fill:url(#SVGID_1_);}
	.st4{fill:url(#SVGID_2_);}
	.st5{fill:url(#SVGID_3_);}
	.st6{fill:url(#SVGID_4_);}
	.st7{opacity:0.2;}
	.st8{fill:#FFFFFF;}
</style>
<path class="st0" d="M456.5,1445.4l339.4-197.4c24.1-14,24-48.8-0.2-62.7L455.1,990.2c-30.4-17.4-67.8-17.3-98,0.3L17.7,1187.8
	c-24.1,14-24,48.8,0.2,62.7l340.6,195.2C388.9,1463.2,426.3,1463,456.5,1445.4z"/>
<path class="st1" d="M456.5,1376.6l339.4-197.4c24.1-14,24-48.8-0.2-62.7L455.1,921.3c-30.4-17.4-67.8-17.3-98,0.3L17.7,1119
	c-24.1,14-24,48.8,0.2,62.7l340.6,195.2C388.9,1394.3,426.3,1394.2,456.5,1376.6z"/>
<path class="st2" d="M456.5,1293.8l339.4-197.4c24.1-14,24-48.8-0.2-62.7L455.1,838.6c-30.4-17.4-67.8-17.3-98,0.3L17.7,1036.2
	c-24.1,14-24,48.8,0.2,62.7l340.6,195.2C388.9,1311.6,426.3,1311.4,456.5,1293.8z"/>
<g>
	<g>
		<linearGradient id="SVGID_1_" gradientUnits="userSpaceOnUse" x1="392.5479" y1="742.882" x2="800.6046" y2="742.882">
			<stop  offset="0" style="stop-color:#ED2F7A"/>
			<stop  offset="1" style="stop-color:#D3A6B3"/>
		</linearGradient>
		<path class="st3" d="M782.6,1030.5l-340.2,197.4c-15.4,8.9-32.6,13.3-49.9,13.3V481.5c17.3,0.1,34.4-4.4,49.9-13.3l340.2-197.4
			c10.4-6,16.3-15.8,17.7-26.3v749.6C802.1,1007.9,796.2,1022.6,782.6,1030.5z"/>
		<linearGradient id="SVGID_2_" gradientUnits="userSpaceOnUse" x1="88.0729" y1="54.2347" x2="793.0766" y2="465.278">
			<stop  offset="0" style="stop-color:#571F55"/>
			<stop  offset="1" style="stop-color:#ED2F7A"/>
		</linearGradient>
		<path class="st4" d="M815.8,244.6c-1.4,10.4-7.3,20.2-17.7,26.3L457.9,468.3c-15.4,8.9-32.6,13.3-49.9,13.3
			c-16.7-0.1-33.4-4.4-48.4-13L18.2,273.4c-10.6-6.1-16.6-16.2-17.9-26.9c-1.7-13.6,4.2-28,17.8-35.8L358.2,13.3
			C388.5-4.3,426-4.5,456.4,13l341.4,195.2C811.6,216.1,817.6,230.8,815.8,244.6z"/>
		<linearGradient id="SVGID_3_" gradientUnits="userSpaceOnUse" x1="0.1183" y1="743.8293" x2="408.0271" y2="743.8293">
			<stop  offset="0" style="stop-color:#571F55"/>
			<stop  offset="1" style="stop-color:#ED2F7A"/>
		</linearGradient>
		<path class="st5" d="M408,481.5v759.6c-16.7-0.1-33.4-4.4-48.4-13L18.2,1033c-11.8-6.8-17.9-18.6-18.1-30.4v-2.4l0.2-753.7
			c1.4,10.7,7.3,20.7,17.9,26.9l341.4,195.2C374.6,477.2,391.4,481.5,408,481.5z"/>
		<linearGradient id="SVGID_4_" gradientUnits="userSpaceOnUse" x1="408.0271" y1="742.882" x2="816.0837" y2="742.882">
			<stop  offset="0" style="stop-color:#ED2F7A"/>
			<stop  offset="1" style="stop-color:#D3A6B3"/>
		</linearGradient>
		<path class="st6" d="M798.1,1030.5l-340.2,197.4c-15.4,8.9-32.6,13.3-49.9,13.3V481.5c17.3,0.1,34.4-4.4,49.9-13.3l340.2-197.4
			c10.4-6,16.3-15.8,17.7-26.3v749.6C817.6,1007.9,811.7,1022.6,798.1,1030.5z"/>
	</g>
	<g class="st7">
		<g>
			<path class="st8" d="M407.6,5.9c16.4,0,32.5,4.3,46.7,12.4l341.4,195.2c10,5.7,16,16,16.1,27.6c0,11.5-5.9,21.9-15.9,27.7
				L455.7,466.1c-14.3,8.3-30.7,12.7-47.2,12.7c-16.4,0-32.5-4.3-46.7-12.4L20.4,271.2c-10-5.7-16-16-16.1-27.6
				c0-11.5,5.9-21.9,15.9-27.7L360.4,18.6C374.7,10.3,391,5.9,407.6,5.9 M407.6,1.6c-17.1,0-34.1,4.4-49.4,13.3L18.1,212.2
				c-24.1,14-24,48.8,0.2,62.7l341.4,195.2c15.1,8.7,32,13,48.9,13c17.1,0,34.1-4.4,49.4-13.3L798,272.4c24.1-14,24-48.8-0.2-62.7
				L456.5,14.5C441.3,5.9,424.5,1.6,407.6,1.6L407.6,1.6z"/>
		</g>
	</g>
</g>
</svg>
