<?xml version="1.0" encoding="utf-8"?>
<!-- Generator: Adobe Illustrator 22.0.0, SVG Export Plug-In . SVG Version: 6.00 Build 0)  -->
<svg version="1.1" id="Layer_1" xmlns="http://www.w3.org/2000/svg" xmlns:xlink="http://www.w3.org/1999/xlink" x="0px" y="0px"
	 viewBox="0 0 163.7 56.7" style="enable-background:new 0 0 163.7 56.7;" xml:space="preserve">
<style type="text/css">
	.st0{fill:#FFFFFF;}
</style>
<g>
	<path class="st0" d="M30.8,21.4L4.2,13.8C2.1,13.2,0,14.8,0,17v22.1c0,3.4,2,6.4,5.1,7.7l23,9.6c2.7,1.1,5.8-0.9,5.8-3.8V25.4
		C33.8,23.5,32.6,21.9,30.8,21.4z"/>
	<path class="st0" d="M53.1,11.3l-14.4,9.5c-1.2,0.8-1.9,2.1-1.9,3.5v28c0,2.3,2.8,3.4,4.3,1.7l13.6-14.4c1.5-1.5,2.3-3.6,2.3-5.7
		V13.4C57,11.4,54.8,10.2,53.1,11.3z"/>
	<path class="st0" d="M50.3,9.5c1.8-1.2,1.3-4-0.8-4.5L29.3,0.2c-1.7-0.4-3.4-0.3-5,0.4L7.8,7.3c-2.2,0.9-2,4.1,0.3,4.7l23.2,6.6
		c2.3,0.7,4.8,0.3,6.9-1.1L50.3,9.5z"/>
	<path class="st0" d="M69,21.4c1,0.5,2.1,0.8,3.3,0.8c1,0,1.9-0.2,2.8-0.5c0.8-0.3,1.5-0.9,2.1-1.5l-1.5-1.4c-0.9,1-2,1.4-3.3,1.4
		c-0.8,0-1.6-0.2-2.3-0.5c-0.7-0.4-1.2-0.9-1.6-1.5c-0.4-0.7-0.6-1.4-0.6-2.2c0-0.8,0.2-1.6,0.6-2.2c0.4-0.7,0.9-1.2,1.6-1.5
		c0.7-0.4,1.4-0.6,2.3-0.6c1.3,0,2.4,0.5,3.3,1.4l1.5-1.4c-0.6-0.7-1.3-1.2-2.1-1.5s-1.7-0.5-2.7-0.5c-1.2,0-2.3,0.3-3.3,0.8
		c-1,0.5-1.8,1.3-2.3,2.2c-0.6,1-0.9,2-0.9,3.2s0.3,2.3,0.8,3.2C67.2,20.1,68,20.9,69,21.4z"/>
	<path class="st0" d="M87.3,19.9c0.4-0.7,0.6-1.6,0.6-2.5s-0.2-1.7-0.6-2.5c-0.4-0.7-1-1.3-1.8-1.7s-1.6-0.6-2.6-0.6
		c-0.9,0-1.8,0.2-2.5,0.6s-1.3,1-1.8,1.7c-0.4,0.7-0.6,1.5-0.6,2.5s0.2,1.7,0.6,2.5c0.4,0.7,1,1.3,1.8,1.7c0.8,0.4,1.6,0.6,2.5,0.6
		c1,0,1.8-0.2,2.6-0.6C86.3,21.2,86.9,20.6,87.3,19.9z M83,20.3c-0.8,0-1.5-0.3-2-0.8c-0.5-0.5-0.8-1.2-0.8-2.1
		c0-0.9,0.3-1.6,0.8-2.1c0.5-0.5,1.2-0.8,2-0.8s1.5,0.3,2,0.8c0.5,0.5,0.8,1.2,0.8,2.1c0,0.9-0.3,1.6-0.8,2.1
		C84.5,20,83.8,20.3,83,20.3z"/>
	<path class="st0" d="M97.1,17v5.1h2.2v-5.3c0-1.4-0.4-2.4-1.1-3.1c-0.7-0.7-1.7-1-2.8-1c-0.7,0-1.3,0.1-1.9,0.3
		c-0.5,0.2-1,0.5-1.4,1v-1.2h-2.1v9.3h2.2v-4.7c0-0.9,0.2-1.6,0.7-2.1s1.1-0.7,1.9-0.7c0.7,0,1.3,0.2,1.6,0.6
		C96.9,15.6,97.1,16.2,97.1,17z"/>
	<path class="st0" d="M103.7,21.1c0.7,0.4,1.5,0.6,2.4,0.6c0.6,0,1.2-0.1,1.8-0.3c0.5-0.2,1-0.5,1.4-0.9v0.5c0,1-0.2,1.7-0.7,2.1
		s-1.2,0.7-2.3,0.7c-0.6,0-1.3-0.1-1.9-0.3c-0.6-0.2-1.1-0.5-1.5-0.8l-1,1.6c0.5,0.4,1.2,0.8,2,1c0.8,0.2,1.7,0.3,2.5,0.3
		c3.4,0,5-1.6,5-4.9v-7.9h-2.1V14c-0.4-0.5-0.8-0.8-1.4-1c-0.6-0.2-1.2-0.3-1.8-0.3c-0.9,0-1.7,0.2-2.4,0.6
		c-0.7,0.4-1.3,0.9-1.7,1.6c-0.4,0.7-0.6,1.5-0.6,2.3s0.2,1.7,0.6,2.4C102.4,20.2,102.9,20.7,103.7,21.1z M104.3,15.2
		c0.5-0.5,1.2-0.7,2.1-0.7c0.8,0,1.5,0.2,2,0.7c0.5,0.5,0.8,1.1,0.8,1.9c0,0.8-0.3,1.4-0.8,1.9c-0.5,0.5-1.2,0.7-2,0.7
		c-0.8,0-1.5-0.2-2.1-0.7s-0.8-1.1-0.8-1.9C103.5,16.3,103.8,15.7,104.3,15.2z"/>
	<path class="st0" d="M116.4,17.5c0-0.9,0.2-1.6,0.7-2.1c0.5-0.5,1.1-0.7,2-0.7c0.2,0,0.3,0,0.5,0.1v-2.1c-1.6,0-2.7,0.5-3.3,1.5
		v-1.4h-2.1v9.3h2.2V17.5z"/>
	<path class="st0" d="M129.5,20.7l-1.2-1.3c-0.7,0.7-1.5,1-2.5,1c-0.8,0-1.5-0.2-2-0.6c-0.5-0.4-0.9-0.9-1-1.6h7.3
		c0-0.3,0-0.5,0-0.6c0-1-0.2-1.8-0.6-2.5c-0.4-0.7-1-1.3-1.7-1.7c-0.7-0.4-1.5-0.6-2.4-0.6c-0.9,0-1.7,0.2-2.5,0.6
		c-0.7,0.4-1.3,1-1.7,1.7c-0.4,0.7-0.6,1.5-0.6,2.5c0,0.9,0.2,1.7,0.6,2.5c0.4,0.7,1,1.3,1.8,1.7c0.8,0.4,1.7,0.6,2.7,0.6
		c0.8,0,1.5-0.1,2.2-0.4C128.6,21.5,129.1,21.2,129.5,20.7z M123.7,15c0.5-0.4,1.1-0.6,1.8-0.6c0.7,0,1.3,0.2,1.8,0.6
		c0.5,0.4,0.8,1,0.9,1.6h-5.3C122.9,16,123.2,15.4,123.7,15z"/>
	<path class="st0" d="M135.3,20.4c-0.6,0-1.2-0.1-1.7-0.3s-1.1-0.4-1.5-0.7l-0.8,1.7c0.4,0.3,1,0.6,1.7,0.8c0.7,0.2,1.5,0.3,2.2,0.3
		c1.3,0,2.3-0.3,3.1-0.8c0.8-0.5,1.1-1.2,1.1-2.1c0-0.7-0.2-1.2-0.5-1.5c-0.3-0.4-0.8-0.6-1.2-0.8c-0.5-0.2-1.1-0.3-1.8-0.4
		c-0.7-0.1-1.3-0.3-1.7-0.4s-0.5-0.4-0.5-0.7c0-0.3,0.2-0.6,0.5-0.8c0.3-0.2,0.8-0.3,1.5-0.3c1,0,1.9,0.2,2.7,0.7l0.8-1.7
		c-0.4-0.2-0.9-0.4-1.6-0.6s-1.3-0.2-1.9-0.2c-1.3,0-2.3,0.3-3,0.8c-0.7,0.5-1.1,1.2-1.1,2.1c0,0.7,0.2,1.2,0.5,1.6
		c0.4,0.4,0.8,0.6,1.3,0.8c0.5,0.2,1.1,0.3,1.9,0.4c0.7,0.1,1.3,0.2,1.6,0.4c0.3,0.1,0.5,0.4,0.5,0.7
		C137.2,20.1,136.6,20.4,135.3,20.4z"/>
	<path class="st0" d="M150.4,17.4c0-0.9-0.2-1.7-0.6-2.5c-0.4-0.7-1-1.3-1.8-1.7s-1.6-0.6-2.6-0.6c-0.9,0-1.8,0.2-2.5,0.6
		s-1.3,1-1.8,1.7c-0.4,0.7-0.6,1.5-0.6,2.5s0.2,1.7,0.6,2.5c0.4,0.7,1,1.3,1.8,1.7c0.8,0.4,1.6,0.6,2.5,0.6c1,0,1.8-0.2,2.6-0.6
		c0.8-0.4,1.3-1,1.8-1.7C150.2,19.1,150.4,18.3,150.4,17.4z M147.4,19.5c-0.5,0.5-1.2,0.8-2,0.8s-1.5-0.3-2-0.8
		c-0.5-0.5-0.8-1.2-0.8-2.1c0-0.9,0.3-1.6,0.8-2.1c0.5-0.5,1.2-0.8,2-0.8s1.5,0.3,2,0.8c0.5,0.5,0.8,1.2,0.8,2.1
		C148.2,18.3,148,19,147.4,19.5z"/>
	<path class="st0" d="M75.3,34c0.5-0.3,0.9-0.6,1.2-1.1s0.4-1,0.4-1.6c0-1-0.4-1.8-1.2-2.3c-0.8-0.6-1.9-0.8-3.3-0.8h-5.7v12.2h6.1
		c1.6,0,2.7-0.3,3.6-0.9s1.2-1.4,1.2-2.5c0-0.8-0.2-1.4-0.6-1.9C76.5,34.6,76,34.3,75.3,34z M68.9,30h3.2c0.8,0,1.4,0.1,1.8,0.4
		c0.4,0.3,0.6,0.7,0.6,1.3c0,0.5-0.2,1-0.6,1.2c-0.4,0.3-1,0.4-1.8,0.4h-3.2V30z M72.6,38.6h-3.7v-3.5h3.7c1.8,0,2.6,0.6,2.6,1.8
		C75.2,38,74.4,38.6,72.6,38.6z"/>
	<rect x="79.7" y="27.4" class="st0" width="2.2" height="13"/>
	<path class="st0" d="M91.5,31.6C90.8,31.2,89.9,31,89,31c-0.9,0-1.8,0.2-2.5,0.6s-1.3,1-1.8,1.7C84.2,34,84,34.8,84,35.7
		s0.2,1.7,0.6,2.5c0.4,0.7,1,1.3,1.8,1.7c0.8,0.4,1.6,0.6,2.5,0.6c1,0,1.8-0.2,2.6-0.6c0.8-0.4,1.3-1,1.8-1.7
		c0.4-0.7,0.6-1.6,0.6-2.5s-0.2-1.7-0.6-2.5C92.9,32.6,92.3,32,91.5,31.6z M91,37.8c-0.5,0.5-1.2,0.8-2,0.8s-1.5-0.3-2-0.8
		c-0.5-0.5-0.8-1.2-0.8-2.1c0-0.9,0.3-1.6,0.8-2.1c0.5-0.5,1.2-0.8,2-0.8s1.5,0.3,2,0.8c0.5,0.5,0.8,1.2,0.8,2.1
		C91.8,36.6,91.5,37.3,91,37.8z"/>
	<path class="st0" d="M100.3,32.8c0.5,0,0.9,0.1,1.3,0.3c0.4,0.2,0.7,0.5,1,1l1.7-1c-0.3-0.7-0.9-1.2-1.6-1.6
		c-0.7-0.4-1.5-0.6-2.4-0.6c-1,0-1.8,0.2-2.6,0.6s-1.4,1-1.8,1.7s-0.6,1.5-0.6,2.5s0.2,1.7,0.6,2.5s1,1.3,1.8,1.7
		c0.8,0.4,1.6,0.6,2.6,0.6c0.9,0,1.7-0.2,2.4-0.6c0.7-0.4,1.2-0.9,1.6-1.6l-1.7-1c-0.3,0.4-0.6,0.8-1,1s-0.8,0.3-1.3,0.3
		c-0.8,0-1.5-0.3-2-0.8s-0.8-1.2-0.8-2.1s0.3-1.6,0.8-2.1C98.8,33.1,99.5,32.8,100.3,32.8z"/>
	<polygon class="st0" points="115.4,31.1 112.8,31.1 108.3,35.3 108.3,27.4 106.1,27.4 106.1,40.4 108.3,40.4 108.3,37.9 
		109.9,36.4 113.2,40.4 115.8,40.4 111.5,35 	"/>
	<path class="st0" d="M121.1,32.8c0.5,0,0.9,0.1,1.3,0.3c0.4,0.2,0.7,0.5,1,1l1.7-1c-0.3-0.7-0.9-1.2-1.6-1.6
		c-0.7-0.4-1.5-0.6-2.4-0.6c-1,0-1.8,0.2-2.6,0.6s-1.4,1-1.8,1.7s-0.6,1.5-0.6,2.5s0.2,1.7,0.6,2.5s1,1.3,1.8,1.7
		c0.8,0.4,1.6,0.6,2.6,0.6c0.9,0,1.7-0.2,2.4-0.6c0.7-0.4,1.2-0.9,1.6-1.6l-1.7-1c-0.3,0.4-0.6,0.8-1,1s-0.8,0.3-1.3,0.3
		c-0.8,0-1.5-0.3-2-0.8s-0.8-1.2-0.8-2.1s0.3-1.6,0.8-2.1C119.6,33.1,120.3,32.8,121.1,32.8z"/>
	<path class="st0" d="M132.2,31c-0.7,0-1.2,0.1-1.8,0.3c-0.5,0.2-1,0.5-1.3,0.9v-4.7h-2.2v13h2.2v-4.7c0-0.9,0.2-1.6,0.7-2.1
		s1.1-0.7,1.9-0.7c0.7,0,1.3,0.2,1.6,0.6c0.4,0.4,0.6,1,0.6,1.8v5.1h2.2v-5.3c0-1.4-0.4-2.4-1.1-3.1C134.3,31.3,133.4,31,132.2,31z"
		/>
	<path class="st0" d="M142.4,31c-0.8,0-1.5,0.1-2.2,0.3c-0.7,0.2-1.3,0.5-1.8,0.9l0.9,1.6c0.3-0.3,0.8-0.5,1.3-0.7
		c0.5-0.2,1-0.2,1.5-0.2c0.8,0,1.3,0.2,1.7,0.5c0.4,0.3,0.6,0.8,0.6,1.5V35h-2.4c-1.3,0-2.3,0.3-2.9,0.8s-0.9,1.2-0.9,2
		c0,0.5,0.1,1,0.4,1.4c0.3,0.4,0.7,0.8,1.2,1c0.5,0.2,1.1,0.4,1.8,0.4c0.7,0,1.3-0.1,1.8-0.3c0.5-0.2,0.9-0.5,1.1-0.9v1.1h2.1v-5.5
		c0-1.3-0.4-2.3-1.1-3C144.8,31.3,143.8,31,142.4,31z M144.5,37.5c-0.2,0.5-0.5,0.8-0.9,1.1c-0.4,0.3-0.9,0.4-1.5,0.4
		c-0.6,0-1-0.1-1.3-0.3c-0.3-0.2-0.5-0.5-0.5-0.9c0-0.8,0.6-1.2,1.9-1.2h2.3V37.5z"/>
	<path class="st0" d="M150.6,26.9c-0.4,0-0.7,0.1-1,0.4c-0.3,0.3-0.4,0.6-0.4,0.9s0.1,0.7,0.4,0.9s0.6,0.4,1,0.4
		c0.4,0,0.7-0.1,1-0.4s0.4-0.6,0.4-1c0-0.4-0.1-0.7-0.4-0.9C151.3,27,151,26.9,150.6,26.9z"/>
	<rect x="149.5" y="31.1" class="st0" width="2.2" height="9.3"/>
	<path class="st0" d="M162.6,32c-0.7-0.7-1.7-1-2.8-1c-0.7,0-1.3,0.1-1.9,0.3c-0.5,0.2-1,0.5-1.4,1v-1.2h-2.1v9.3h2.2v-4.7
		c0-0.9,0.2-1.6,0.7-2.1s1.1-0.7,1.9-0.7c0.7,0,1.3,0.2,1.6,0.6c0.4,0.4,0.6,1,0.6,1.8v5.1h2.2v-5.3C163.7,33.7,163.3,32.7,162.6,32
		z"/>
</g>
</svg>
