<svg version="1.1" id="Layer_1" xmlns="http://www.w3.org/2000/svg" xmlns:xlink="http://www.w3.org/1999/xlink" x="0px" y="0px"
	 viewBox="0 0 452.6 323.3" style="enable-background:new 0 0 452.6 323.3;" xml:space="preserve">
<style type="text/css">
	.st0{fill:rgba(88, 157, 209, 0.05);}
</style>
<path class="st0" d="M452.6,129.5L341.5,0.6l0.3-0.4h-0.6L341,0l-0.2,0.2H118.7L35.4,96.9H0v0.8h34.7l-4.2,4.9L7.8,128.9l-7.8-9v1.2
	l6.9,8.1H0v0.8h6.9l-6.7,7.8L0,137.9v1.2l7.8-9l12.1,14.1l1,1.1H8.6H7.9L7.8,145l-0.2,0.2h0H0v0.8h6.9l-3.1,3.7l-3,3.5l-0.8-1v1.1
	l0,0h0v0.8h0l0,0v1.1l0.4-0.5l0.4-0.5l5.6,6.5l0.5,0.6H0v0.8h6.9l-1.2,1.4l-4.9,5.7l-0.2-0.3L0,168.2v1.1l0,0h0v1.9l0.8-1l3,3.5
	l3.1,3.7H0v0.8h7.6h0l0.2,0.2l0.2-0.2h0.6h12.3l-0.4,0.5L7.8,193.3l-7.8-9v1.2l0.3,0.4l6.6,7.7H0v0.8h6.9L1.1,201L0,202.3v1.2
	l0.9-1.1l6.8-7.9l9.2,10.7l3.9,4.5H0v0.8h20.8l-5.9,6.9l-7.1,8.3l-6.7-7.8L0,216.5v1.2l0.6,0.7l6.4,7.4H0v0.8h6.9L0,234.5v1.2l7.8-9
	l13,15l0.1,0.1H0v0.8h20.8L7.8,257.8L2,251.1l-2-2.4v1.1l6.9,8.1H0v0.8h6.9h0.6L35,290.5l27.5,31.8H0v0.8h63.1h0l0.2,0.2l0.2-0.2
	h0.6h110.1l0.2,0.2l0.2-0.2h0.6l-0.3-0.4l55.2-64.1h110.7l0.2,0.2l0.2-0.2h0.6l-0.3-0.4L452.6,129.5z M119,0.9h221.2l-17.8,20.7
	l-92.5,107.3L174.9,65l0.3-0.4h-0.6l-0.2-0.2l-0.2,0.2H64.1L119,0.9z M55.5,121.8l-6.3,7.3h-0.6H36.4l6.3-7.3H55.5z M43.3,121
	l6.1-7.1l6.1,7.1H43.3z M64.1,225.7l0.5-0.6l5.7-6.6l0,0l0.2-0.2h0.6l-0.3-0.4l6.4-7.5l10.7,12.4l2.4,2.8H64.1z M90.3,226.5
	l-13.1,15.2l-13.1-15.2H90.3z M50.9,211.2l-0.7-0.8h5.3l-1,1.2l-1.6,1.9L50.9,211.2z M52.1,213.7h-5.3l2.7-3.1l0.8,0.9l0.1,0.1
	L52.1,213.7z M56.4,210.6l2.7,3.1h-5.3L56.4,210.6z M57.2,210.4h5.3l-0.7,0.8l-2,2.3L57.2,210.4z M57.2,209.6l2.7-3.1l1.9,2.2
	l0.7,0.9H57.2z M56.4,209.4l-0.5-0.5l-2.2-2.5H59L56.4,209.4z M54.4,208.3l1.2,1.4h-5.3l2.7-3.1L54.4,208.3z M49.8,209l-0.4,0.4
	l-2.7-3.1h5.3L49.8,209z M48.6,209.6h-5.3l1.8-2.1l0.8-0.9L48.6,209.6z M44.9,212.2l-1.6-1.9h5.3l-2.7,3.1L44.9,212.2z M45.1,213.7
	h-5.3l2.7-3.1l2,2.3L45.1,213.7z M46,214.6l2.7,3.1h-5.3L46,214.6z M48.4,216.3l-1.6-1.9h5.3l-2.7,3.1L48.4,216.3z M52.9,214.6
	l2,2.3l0.7,0.8h-5.3L52.9,214.6z M53.7,214.4H59l-2.7,3.1L53.7,214.4z M60,214.4h0.6l-0.3-0.4l0,0l0,0l1.7-2l1.2-1.5l3.3,3.8
	l2.8,3.3H57.2L60,214.4z M64.1,210.4h12.2l-1.2,1.4l-4.9,5.7L64.1,210.4z M64.1,209.6l6.1-7.1l6.1,7.1H64.1z M66.4,205.9l-3,3.5
	l-0.7-0.8l-0.4-0.5l-1.9-2.2l0,0l0,0l0.3-0.4H60l-2.8-3.3h12.2L66.4,205.9z M59,205.6h-5.3l2.7-3.1L59,205.6z M54.9,203.1l-2,2.3
	l-2.7-3.1h5.3L54.9,203.1z M52.1,205.6h-5.3l1.5-1.8l1.1-1.3L52.1,205.6z M45.9,205.4l-0.6-0.7l-2.1-2.4h5.3L45.9,205.4z
	 M45.1,205.6h-5.3l2.7-3.1L45.1,205.6z M45.1,206.3l-0.4,0.5l-2.3,2.6l-2.7-3.1H45.1z M41.7,209.6L41.7,209.6h-5.3l2.7-3.1
	L41.7,209.6z M41.7,210.4l-2.7,3.1l-0.1-0.1l-2.6-3H41.7z M45.1,214.4L45.1,214.4l-2.7,3.1l-2.7-3.1H45.1z M42.5,218.6l6.1,7.1H36.4
	L42.5,218.6z M46.4,222.1l-3.1-3.7h6l0.2,0.2l0.2-0.2h0.6h5.3l-6.1,7.1L46.4,222.1z M56.4,218.6l2.9,3.4l3.2,3.7H50.2L56.4,218.6z
	 M57.2,218.4h12.2l-6.1,7.1L57.2,218.4z M77.7,210l0.3-0.4h-0.6l-6.6-7.7l0.3-0.4h-0.6l-6.3-7.3H118l-26.6,30.9l-0.3,0.4L77.7,210z
	 M131.9,178.2l-13.1,15.2l-1-1.2l-12-14H131.9z M105.1,177.4L91.9,162h26.8l10.8,12.5l2.4,2.8H105.1z M119.7,162h26.1l-3.8,4.5
	l-9.2,10.7L119.7,162z M118.7,161.3H91.9l13.2-15.4h0.6h26.1l-1.1,1.2L118.7,161.3z M91.1,161.1L78,145.9h26.1l-11.8,13.7
	L91.1,161.1z M78,145.2l3.1-3.6l3-3.5l0,0l0.2-0.2H85l-0.3-0.4l6.4-7.5l1.1,1.3l11.9,13.8H78z M60.3,141.5l-3.1-3.7h12.2l-6.1,7.1
	l-0.1-0.2L60.3,141.5z M62.5,145.2H50.2l6.1-7.1l5.7,6.6L62.5,145.2z M70.3,138.1l3.9,4.5l2.2,2.6H64.1L70.3,138.1z M71.1,137.9
	h12.2l-6.1,7.1L71.1,137.9z M84.1,136.9l-6.1-7.1h12.2L84.1,136.9z M78,129.1l6-7l0.1-0.1l6.1,7.1H78z M82.7,122.5l-5.5,6.3
	l-6.1-7.1h12.3L82.7,122.5z M77.2,130l1,1.2l5.1,5.9H71.1l0.9-1.1L77.2,130z M75.2,131.1l-5,5.8l-4.4-5.1l-0.2-0.2l-1.5-1.8h12.2
	L75.2,131.1z M66.6,133.9l2.8,3.3H57.2l3.1-3.7l3-3.5L66.6,133.9z M56.4,136.9l-0.9-1l-5.2-6.1h12.2L56.4,136.9z M51,131.9l4.5,5.3
	H43.3l6.1-7.1L51,131.9z M55.5,137.9l-6.1,7.1l-6.1-7.1H55.5z M49.4,146.1l6.4,7.5l6.6,7.7H36.4L49.4,146.1z M61.6,159.2l-11.4-13.2
	h12.9h0l0.2,0.2l0.2-0.2h0.6h12.2l-13.1,15.2L61.6,159.2z M77.2,146.1l13.1,15.2H64.1L77.2,146.1z M91.1,162.2l13.7,15.9h0
	l13.2,15.4H64.1L91.1,162.2z M113.2,201l5.7-6.6l21.7,25.2l5.2,6.1H91.9L113.2,201z M122,197l-2.4-2.8h0h53.9l-21.9,25.4l-5,5.8
	L122,197z M119.7,193.5L119.7,193.5l5.5-6.3l7.8-9h0.6l-0.3-0.4l13.4-15.5l27,31.3H119.7z M119.7,161.3l13.1-15.2l13.1,15.2H119.7z
	 M105.8,145.2l13.1-15.2l13.1,15.2H105.8z M105,145l-13.1-15.2H118L105,145z M91.9,129.1l12.3-14.3l0.7-0.8l13.1,15.2H91.9z
	 M91.1,128.9l-6.4-7.5L85,121h-0.6l-0.2-0.2L84,121H71.1h0l6.3-7.3h26.8L91.1,128.9z M76.4,129.1H64.1l6.1-7.1L76.4,129.1z
	 M66.1,125.6l-2.8,3.3l-6.1-7.1h12.2L66.1,125.6z M62.5,129.1H50.2l5-5.8l1.1-1.3L62.5,129.1z M48.6,129.8L48.6,129.8l-6.1,7.1
	l-6.1-7l-0.1-0.1H48.6z M42,137.5l-0.3,0.4h0.6l0.9,1l5.4,6.3H22.5h0L35.5,130L42,137.5z M15.5,153.2l5.5-6.4l0.6-0.7l1.2,1.3l5,5.8
	H15.5z M27.8,154l-1,1.1l-5.2,6l-6.1-7.1H27.8z M20.8,161.3H8.6l2.9-3.4l3.2-3.7l0,0L20.8,161.3z M20.8,162l-5.9,6.9l-0.2,0.2
	l-3.1-3.6l-3-3.5H20.8z M15.5,169.3l6.1-7.1l4.8,5.5l1.4,1.6H15.5z M27.8,170.1l-6.1,7.1l-6.1-7.1H27.8z M23.2,162.9l-0.7-0.9h0
	h12.2l-6.1,7.1L23.2,162.9z M22.5,161.3L22.5,161.3l0.3-0.4l5.8-6.7l0.5,0.5l5.7,6.6H22.5z M29.1,153.6l0.3-0.4h-0.6l-3.1-3.6
	l-3.2-3.7h26.1l-8.5,9.8l-4.6,5.3L29.1,153.6z M63.1,162L63.1,162l0.2,0.2l0.2-0.2h0.6h26.1l-3.6,4.2l-23.3,27.1L48,175.5L36.4,162
	H63.1z M69.4,201.6H57.2l2.7-3.2l3.4-3.9L69.4,201.6z M56.8,200.9l-0.4,0.5l-6.1-7.1h12.2L56.8,200.9z M55.5,201.6h-5.3h-0.6
	l-0.2-0.2l-0.2,0.2h-6l3.1-3.7l3-3.5L55.5,201.6z M42.5,201.4l-6.1-7.1h12.2L42.5,201.4z M41.7,201.6L41.7,201.6H29.4l6.1-7.1
	L41.7,201.6z M41.7,202.3l-2.8,3.3h-0.6l0.3,0.4l-3,3.5l-6.1-7.1H41.7z M34.7,209.6H22.5l6.1-7.1L34.7,209.6z M34.7,210.4l-6.1,7.1
	l-4-4.6l-2.2-2.5H34.7z M35.5,210.6l3,3.5l-0.3,0.4h0.6l2.8,3.3H29.4L35.5,210.6z M41.7,218.4l-3.7,4.3l-2.4,2.8l-6.1-7.1H41.7z
	 M48.6,241.8H22.5l4.2-4.9l8.8-10.3L48.6,241.8z M47,238.8l-10.6-12.3h12.9l0.2,0.2l0.2-0.2h12.9l-13.1,15.2L47,238.8z M63.3,226.7
	l11.4,13.2l1.7,2H50.2L63.3,226.7z M76.4,242.6l-13.1,15.2l-13.1-15.2H76.4z M77.4,242.6H78l-0.3-0.4l13.4-15.5l7.3,8.5l11.2,12.9
	l8.5,9.8H64.1L77.4,242.6z M91.9,226.5h53.9l-27,31.3L91.9,226.5z M146.6,226.7l27,31.3h-53.9L146.6,226.7z M173.5,256.7l-26.4-30.6
	l27.3-31.6l27.3,31.6l-27.3,31.6L173.5,256.7z M174.4,193.3l-27.3-31.6l0.3-0.4h-0.6l-13.6-15.7l0.3-0.4h-0.6l-13.2-15.4h109.5
	L174.4,193.3z M119.7,129.1l54.7-63.5l54.7,63.5H119.7z M36.4,96.9l27.1-31.5h110.1l-8.8,10.2l-46,53.3l-13.4-15.5l0.3-0.4h-0.6
	l-0.2-0.2l-0.2,0.2H77l-6.9,8.1H57.2h-0.6l-0.2-0.2l0,0l-6.4-7.5l0.3-0.4h-0.6l-0.2-0.2l0,0L36,97.2L36.4,96.9L36.4,96.9z
	 M35.5,97.8L48.6,113H22.5L35.5,97.8z M21.8,113.8L21.8,113.8l26.8,0l-0.5,0.6l-12.8,14.8h-0.6H8.6L21.8,113.8z M11.2,132.8l-2.6-3
	h26.1L21.6,145L11.2,132.8z M20.8,145.9L20.8,145.9l-6.1,7.1l-6.1-7.1H20.8z M6.1,148.1l1.7-1.9l6.1,7.1H1.6L6.1,148.1z M4.5,157.3
	L1.6,154h12.2l-3.6,4.1l-2.5,3L4.5,157.3z M4.5,166l3.2-3.8l3,3.5l3.1,3.7H1.6L4.5,166z M7.8,177.2l-1.2-1.4l-4.9-5.7h12.2
	L7.8,177.2z M8.6,177.4l6.1-7.1L17,173l3.8,4.4H8.6z M20.3,180l1.4-1.6l0,0l0.2-0.2h0.6l-0.3-0.4l6.6-7.7h0.6l-0.3-0.4l0,0l6.4-7.5
	l3.8,4.4l23.1,26.8H50.2h-0.6l-0.2-0.2l-0.2,0.2H36.4h-0.6l-0.2-0.2l-0.2,0.2h0H8.6L20.3,180z M14.7,201.4l-6.1-7.1h26.1l-6.3,7.3h0
	h-0.6l0.3,0.4l-0.3,0.4h0l-5.1,6l-1,1.1L14.7,201.4z M20.5,211.9l1.2-1.3l6.4,7.5l-0.3,0.4h0.6l6.3,7.3H8.6L20.5,211.9z M20.2,240
	L8.6,226.5h26.1l-6.4,7.4l-6.7,7.7L20.2,240z M20.7,243.8l0.9-1.1l0,0l0.2-0.2h0.6h26.8l4.6,5.4l8.6,10H8.6L20.7,243.8z M63.3,322.2
	l-6.3-7.4L8.6,258.7h54.6h0l0.2,0.2l0.2-0.2h0.6H118L63.3,322.2z M64.1,322.4l54.7-63.5l45.6,52.9l9.1,10.6H64.1z M174.4,322.2
	l-54.7-63.5h54.6l0.2,0.2l0.2-0.2h0.6h53.9L174.4,322.2z M175.2,258l27-31.3l27,31.3H175.2z M230.1,258l-54.9-63.7h0l-0.3-0.4
	l0.3-0.4h0l54.7-63.5l92,106.7l18.3,21.2H230.1z M341,257.8l-19.8-23l-90.8-105.3L341,1.1l110.6,128.3L341,257.8z"/>
</svg>
